<?xml version="1.0" standalone="no"?>
<!DOCTYPE svg PUBLIC "-//W3C//DTD SVG 20010904//EN"
 "http://www.w3.org/TR/2001/REC-SVG-20010904/DTD/svg10.dtd">
<svg version="1.0" xmlns="http://www.w3.org/2000/svg"
 width="1200.000000pt" height="1600.000000pt" viewBox="0 0 1200.000000 1600.000000"
 preserveAspectRatio="xMidYMid meet">

<g transform="translate(0.000000,1600.000000) scale(0.100000,-0.100000)"
fill="#000000" stroke="none">
<path d="M9031 15804 c0 -11 3 -14 6 -6 3 7 2 16 -1 19 -3 4 -6 -2 -5 -13z"/>
<path d="M10495 15620 c3 -5 8 -10 11 -10 2 0 4 5 4 10 0 6 -5 10 -11 10 -5 0
-7 -4 -4 -10z"/>
<path d="M10496 15522 c-4 -24 -6 -46 -2 -49 8 -8 18 42 14 68 -3 18 -6 13
-12 -19z"/>
<path d="M10491 15434 c0 -11 3 -14 6 -6 3 7 2 16 -1 19 -3 4 -6 -2 -5 -13z"/>
<path d="M10492 15300 c0 -14 2 -19 5 -12 2 6 2 18 0 25 -3 6 -5 1 -5 -13z"/>
<path d="M10472 14780 c0 -19 2 -27 5 -17 2 9 2 25 0 35 -3 9 -5 1 -5 -18z"/>
<path d="M5316 14652 c-6 -18 -8 -18 -117 -21 -15 -1 -43 6 -63 14 -32 14 -42
13 -113 -4 -127 -32 -185 -57 -225 -100 -20 -21 -53 -44 -72 -51 -47 -15 -88
-64 -80 -95 3 -13 0 -26 -6 -30 -9 -5 -10 -1 -6 16 7 23 6 23 -8 5 -8 -10 -25
-24 -38 -30 -12 -6 -30 -31 -38 -54 -9 -24 -28 -53 -43 -65 -30 -25 -77 -120
-77 -157 0 -14 -6 -56 -13 -95 -12 -71 -12 -125 2 -125 4 0 5 15 3 33 -2 18 1
48 6 67 l10 35 2 -45 c3 -84 7 -116 18 -151 17 -52 18 -91 3 -126 -7 -17 -11
-40 -8 -50 4 -15 5 -14 6 4 0 12 6 25 11 28 16 10 12 -49 -5 -71 -20 -27 -18
-44 5 -44 23 0 38 -43 21 -64 -23 -27 2 -23 45 7 52 37 112 74 134 83 70 28
90 38 90 47 0 5 9 7 21 4 13 -3 28 2 40 14 10 10 30 19 43 19 23 0 140 32 181
49 38 17 150 41 215 46 36 3 81 10 100 15 66 15 182 21 196 9 9 -7 14 -8 14
-1 0 5 7 13 16 16 12 4 15 2 10 -9 -3 -8 -1 -15 4 -15 6 0 10 7 10 16 0 11 5
14 18 9 9 -4 34 -8 55 -10 23 -1 48 -12 64 -26 l25 -24 -7 24 c-7 21 -5 23 16
18 13 -4 29 -7 34 -7 6 0 3 -4 -5 -10 -8 -5 -12 -11 -9 -14 10 -10 78 -13 81
-4 5 14 58 -13 58 -29 0 -13 -5 -15 -52 -16 -15 -1 -25 -4 -22 -8 6 -10 94 -1
109 11 6 5 15 6 20 2 4 -4 4 4 0 17 -5 16 -4 21 4 16 14 -8 5 -87 -11 -96 -14
-9 -2 -40 14 -38 18 2 58 -12 58 -20 0 -16 -14 -20 -27 -9 -19 16 -30 1 -15
-22 13 -22 3 -27 -16 -8 -9 9 -12 8 -12 -5 0 -12 8 -17 30 -17 31 0 50 -22 50
-60 0 -13 10 -25 28 -32 15 -7 38 -24 52 -38 23 -23 25 -32 22 -100 -4 -71 -3
-73 15 -59 27 21 33 31 34 64 0 27 2 25 19 -20 10 -27 19 -59 20 -70 0 -11 8
-29 16 -40 15 -19 16 -19 9 12 -4 21 -2 34 7 39 7 4 10 4 6 -1 -10 -11 20 -65
35 -62 7 1 11 -8 9 -25 -2 -19 3 -28 17 -33 11 -3 23 -15 26 -26 6 -19 8 -19
19 -3 7 9 11 27 8 40 -6 32 14 31 22 -1 4 -16 13 -25 26 -25 13 0 17 5 14 14
-3 8 -1 23 4 33 10 16 12 15 21 -10 6 -16 15 -25 21 -22 5 3 10 1 10 -4 0 -6
-9 -11 -20 -11 -14 0 -20 -7 -21 -25 -1 -14 -2 -30 -3 -37 -1 -6 5 -13 12 -15
6 -3 12 3 12 12 0 9 5 25 10 36 16 28 52 4 43 -29 -4 -19 -2 -23 13 -20 14 2
20 -5 24 -27 3 -16 11 -30 18 -30 7 0 17 -7 23 -15 8 -12 9 -10 4 8 -5 16 -2
22 10 22 8 0 20 11 25 25 5 14 14 25 19 25 11 0 25 -30 22 -47 -2 -16 46 -17
51 -1 2 6 10 8 16 4 17 -10 15 -24 -5 -29 -10 -2 -3 -4 14 -4 27 0 31 3 22 14
-15 17 -5 28 17 19 12 -4 14 -13 10 -31 -5 -18 -2 -27 8 -31 9 -3 12 -13 9
-22 -4 -13 -2 -13 9 2 9 12 22 17 31 13 10 -4 20 0 25 10 7 12 10 9 15 -16 4
-20 11 -29 20 -25 16 6 39 -19 36 -38 -4 -20 65 -90 83 -83 19 8 34 -25 16
-36 -10 -7 -10 -11 0 -21 9 -9 12 -9 12 2 0 8 7 4 17 -10 9 -14 31 -42 50 -63
30 -34 38 -37 34 -14 -1 5 3 6 9 2 6 -3 7 -12 3 -18 -11 -17 -4 -68 13 -105 9
-18 13 -40 10 -48 -4 -9 2 -14 17 -14 18 0 19 -2 7 -10 -13 -9 -13 -10 0 -10
9 0 16 -9 16 -20 0 -11 -5 -20 -10 -20 -6 0 -5 -5 1 -11 6 -6 38 -13 70 -15
184 -13 302 -171 306 -409 2 -87 -2 -110 -27 -180 -15 -44 -34 -89 -40 -100
-7 -11 -23 -46 -35 -77 -13 -32 -26 -58 -30 -58 -3 0 -15 -18 -25 -41 -37 -77
-152 -169 -210 -169 -9 0 -16 -4 -16 -8 0 -4 -24 -16 -52 -27 -29 -10 -59 -23
-66 -28 -7 -6 -50 -9 -95 -8 -45 2 -127 4 -182 5 l-100 1 -3 35 c-2 27 4 42
25 64 43 45 63 79 63 105 0 22 -3 23 -45 18 l-44 -7 6 30 c6 33 -9 39 -39 17
-16 -13 -32 -114 -30 -192 1 -51 -7 -63 -24 -35 l-15 25 6 -28 c4 -21 1 -29
-12 -34 -10 -4 -23 -14 -30 -22 -14 -19 -25 -10 -27 21 -1 18 -7 22 -26 21
-21 -2 -23 -1 -10 10 23 18 40 83 27 96 -6 6 -17 11 -24 11 -7 0 -13 7 -13 15
0 9 6 12 15 9 12 -5 15 2 15 34 0 43 -19 69 -37 51 -13 -13 -53 17 -53 39 0 7
-4 10 -10 7 -5 -3 -10 1 -10 11 0 9 -8 24 -18 33 -10 9 -21 24 -25 34 -9 23
-23 22 -30 -3 -3 -13 0 -20 9 -20 8 0 14 -4 14 -10 0 -5 -8 -10 -19 -10 -10 0
-21 -9 -24 -20 -8 -30 -34 -24 -46 11 -9 27 -13 30 -26 19 -19 -16 -19 -34 0
-26 8 3 15 1 15 -4 0 -6 -7 -10 -16 -10 -8 0 -13 -4 -10 -9 8 -12 -40 -54 -53
-47 -6 4 -16 -2 -23 -14 -8 -12 -23 -20 -41 -20 -25 0 -27 -3 -21 -26 6 -24 5
-25 -14 -15 -14 8 -23 8 -27 1 -4 -6 -20 -10 -37 -8 -28 3 -32 0 -43 -39 -13
-44 -60 -103 -82 -103 -19 0 -33 33 -22 53 8 14 6 17 -13 16 -13 0 -33 2 -46
6 -22 7 -23 5 -21 -33 3 -41 -15 -77 -33 -66 -6 4 -5 10 3 16 11 7 11 11 2 15
-7 2 -13 11 -13 19 0 8 -6 14 -13 14 -24 0 -28 -13 -10 -32 15 -17 15 -18 -5
-18 -15 0 -24 -8 -28 -27 -4 -16 -3 -28 3 -30 6 -2 0 -15 -14 -29 -14 -14 -28
-23 -31 -20 -3 3 -2 6 3 6 4 0 2 7 -5 15 -7 8 -20 30 -30 48 -20 36 -53 50
-50 20 3 -29 -11 -62 -25 -57 -6 3 -20 32 -30 64 -14 46 -15 63 -6 74 9 10 9
20 0 40 -13 27 -24 33 -34 16 -3 -5 -15 -10 -26 -10 -11 0 -19 -7 -20 -17 0
-14 -2 -14 -9 3 -9 23 -30 41 -30 27 0 -5 5 -14 11 -20 8 -8 7 -13 -1 -18 -7
-4 -15 -2 -19 4 -5 8 -38 11 -96 10 -58 -1 -90 2 -93 10 -2 6 -16 11 -30 11
-22 0 -24 2 -12 10 11 8 8 9 -11 5 -19 -5 -28 -2 -32 9 -4 9 -12 16 -19 16 -7
0 -24 9 -37 19 -14 10 -30 17 -35 15 -11 -4 -121 80 -121 94 -1 4 -7 18 -15
32 -7 14 -12 25 -11 25 1 0 -1 8 -4 18 -4 9 -12 17 -19 17 -7 0 -23 13 -36 30
-14 16 -34 30 -45 30 l-20 1 20 9 c19 7 19 8 -5 18 -14 5 -28 8 -32 6 -3 -2
-16 9 -28 26 -41 58 -68 29 -30 -32 21 -35 27 -78 10 -78 -6 0 -15 11 -20 25
-11 30 -30 33 -30 6 0 -11 -14 -33 -31 -50 -26 -26 -39 -31 -82 -32 -29 -1
-55 -1 -59 0 -4 0 -31 3 -60 5 -48 4 -140 31 -194 58 -12 5 -31 7 -42 4 -11
-4 -38 -3 -60 2 -32 8 -42 7 -46 -4 -8 -20 -96 -19 -96 1 0 8 -7 15 -15 15 -8
0 -15 -7 -15 -16 0 -8 -5 -12 -11 -8 -15 9 -4 -26 33 -103 16 -35 38 -65 49
-68 10 -4 19 -14 18 -23 0 -11 -2 -12 -6 -4 -2 6 -9 9 -14 6 -6 -3 -16 -1 -24
6 -20 17 -23 3 -23 -96 0 -117 13 -170 80 -329 62 -148 84 -228 74 -276 -4
-19 -7 -44 -6 -56 0 -13 -6 -23 -14 -23 -20 0 -26 -36 -17 -115 5 -38 7 -91 6
-117 -1 -27 2 -48 6 -48 5 0 9 -4 9 -10 0 -5 -7 -7 -16 -3 -13 5 -15 2 -9 -16
4 -13 1 -31 -8 -44 -30 -47 -38 -87 -21 -112 12 -19 14 -36 7 -82 -8 -62 -6
-104 6 -113 4 -3 7 -24 8 -47 0 -24 5 -49 11 -55 5 -7 16 -32 23 -56 10 -34
20 -46 47 -57 25 -11 32 -19 28 -33 -5 -14 7 -24 57 -47 34 -16 71 -38 82 -48
11 -10 31 -21 45 -24 14 -3 30 -12 35 -18 17 -21 45 -26 45 -8 0 11 3 13 13 5
6 -6 32 -8 57 -6 25 3 65 6 90 8 52 2 76 14 107 50 21 24 63 36 63 18 0 -4
-22 -30 -49 -58 -44 -44 -59 -52 -123 -68 -82 -20 -289 -89 -358 -118 -67 -29
-161 -62 -295 -103 -66 -20 -165 -56 -220 -80 -189 -82 -663 -250 -748 -265
-29 -5 -98 -33 -155 -62 -90 -45 -115 -64 -187 -140 -109 -115 -183 -245 -204
-358 -5 -25 -18 -81 -29 -125 -11 -44 -25 -118 -31 -165 -5 -47 -28 -170 -51
-275 -67 -312 -85 -416 -105 -635 -8 -91 -27 -220 -40 -288 -14 -68 -29 -187
-34 -265 -7 -113 -17 -177 -51 -312 -58 -238 -68 -308 -82 -570 -8 -167 -9
-283 -1 -425 l10 -194 -28 -99 c-35 -122 -109 -322 -159 -433 -56 -121 -76
-203 -105 -438 -22 -174 -25 -223 -17 -300 5 -53 5 -122 0 -165 -7 -62 -14
-80 -42 -113 -57 -66 -77 -136 -76 -263 1 -61 -5 -153 -14 -205 -18 -112 -39
-357 -39 -450 1 -36 8 -93 17 -127 15 -57 15 -69 2 -120 -22 -86 -46 -298 -46
-405 1 -92 23 -231 54 -338 10 -34 16 -94 16 -160 0 -58 5 -132 10 -165 8 -44
6 -107 -6 -240 -22 -240 -15 -470 19 -660 14 -77 34 -205 46 -285 12 -80 24
-160 27 -178 l5 -32 1555 0 c1546 0 1555 0 1549 20 -4 12 5 49 20 88 14 37 31
79 37 94 6 15 14 26 18 23 14 -8 4 -64 -15 -85 -17 -19 -17 -21 1 -42 19 -21
19 -21 -2 -16 -16 4 -26 -2 -38 -22 -19 -32 -20 -40 -6 -40 6 0 10 9 10 19 0
11 5 23 11 26 6 4 9 -4 7 -22 -2 -23 1 -28 17 -26 11 1 23 -4 27 -10 8 -13 13
257 8 451 -2 108 0 118 30 198 18 46 36 84 40 84 5 0 11 -28 14 -62 13 -127
17 -140 32 -127 8 6 14 20 14 30 0 25 17 33 24 12 3 -10 10 -63 16 -118 12
-119 21 -167 62 -343 l31 -132 2717 0 2717 0 13 63 c15 77 77 324 130 522 42
156 63 268 79 420 21 196 54 408 86 560 36 169 61 351 76 550 4 66 14 156 20
200 13 95 13 251 0 470 -13 214 -39 514 -52 600 -5 39 -14 223 -19 410 -10
351 -18 495 -45 769 -8 88 -15 225 -15 305 -1 415 -28 708 -95 1026 -16 75
-29 180 -34 280 -11 178 -32 340 -60 458 l-19 78 24 48 c40 85 58 168 57 281
0 131 -24 239 -93 413 -36 92 -53 151 -59 210 -5 45 -23 123 -40 172 -30 91
-45 175 -56 319 -12 158 -69 263 -172 321 -26 14 -96 41 -157 59 -61 19 -138
46 -171 61 -33 15 -99 42 -147 61 -142 56 -287 127 -381 187 -48 31 -91 57
-95 57 -4 0 -34 16 -67 37 -89 53 -360 191 -430 218 -33 13 -118 46 -190 75
-71 29 -184 72 -250 97 -66 25 -140 54 -165 65 -111 51 -219 107 -237 125 -10
10 -51 45 -91 76 -39 32 -96 88 -125 125 -30 37 -109 119 -175 182 -67 63
-159 159 -204 213 -82 98 -181 183 -222 191 -11 3 -38 7 -60 10 -21 3 -40 7
-42 9 -3 3 14 103 35 207 12 54 72 245 100 315 83 209 132 326 182 430 31 66
66 142 78 168 11 27 33 67 49 90 16 23 43 63 60 88 51 75 105 181 116 229 5
25 11 115 12 200 2 184 8 259 23 322 10 45 13 94 15 286 1 58 5 82 14 82 14 0
16 34 3 58 -5 9 -10 53 -12 97 -2 48 -10 97 -21 123 -22 52 -22 56 -4 49 19
-8 9 32 -16 60 -11 12 -18 26 -14 31 3 5 -1 18 -9 28 -8 10 -15 14 -15 9 0 -6
6 -17 13 -24 6 -7 -6 -4 -28 8 -22 12 -46 21 -53 21 -7 0 -10 5 -7 10 3 6 17
10 31 10 13 0 24 5 24 10 0 6 -16 10 -35 10 -19 0 -35 5 -35 10 0 6 15 10 33
10 32 0 66 14 57 24 -3 2 -27 0 -54 -5 -56 -10 -70 -5 -56 20 5 10 7 21 4 24
-7 7 15 48 35 65 14 12 14 13 -2 8 -19 -6 -37 21 -21 33 13 9 17 41 4 41 -5 0
-10 18 -10 40 0 44 -32 135 -59 165 -10 11 -28 37 -40 59 -43 76 -120 153
-174 176 -29 12 -70 39 -92 61 -109 106 -146 137 -176 149 -19 8 -40 22 -47
32 -7 10 -27 25 -43 34 -16 8 -60 40 -96 71 -37 31 -83 66 -103 77 -20 12 -58
36 -85 54 -39 25 -59 32 -99 32 -33 0 -70 9 -104 25 -62 29 -82 31 -121 11
-24 -13 -34 -13 -77 0 -29 9 -78 14 -120 12 -58 -2 -77 2 -108 20 -47 28 -73
28 -98 0 -11 -13 -17 -17 -13 -10 11 21 -21 42 -72 44 -40 3 -48 6 -51 24 -2
15 -15 25 -44 35 -37 12 -42 11 -54 -6 -8 -11 -12 -31 -9 -45 3 -14 1 -32 -5
-40 -8 -13 -10 -12 -10 3 0 9 -5 17 -11 17 -7 0 -17 7 -23 15 -6 9 -28 16 -48
17 -23 1 -45 9 -54 20 -21 22 -72 24 -80 3 -9 -21 -24 -19 -24 5 0 10 -5 30
-11 43 -9 21 -20 25 -73 31 -33 3 -62 11 -64 16 -6 17 -40 11 -46 -8z m42 -25
c2 -10 -3 -17 -11 -17 -16 0 -30 24 -19 34 10 10 27 1 30 -17z m-45 -39 c5
-18 4 -18 -16 -5 -12 7 -28 17 -35 21 -7 4 -10 11 -7 16 9 14 53 -10 58 -32z
m158 9 c-13 -13 -26 -3 -16 12 3 6 11 8 17 5 6 -4 6 -10 -1 -17z m-431 -17 c0
-5 -4 -10 -9 -10 -6 0 -13 5 -16 10 -3 6 1 10 9 10 9 0 16 -4 16 -10z m40 -16
c0 -14 -3 -14 -15 -4 -8 7 -15 14 -15 16 0 2 7 4 15 4 8 0 15 -7 15 -16z
m-199 -52 c-21 -61 -28 -71 -36 -49 -6 14 15 66 38 95 17 21 16 9 -2 -46z m57
31 c-9 -10 -18 -27 -21 -38 -4 -17 -5 -16 -6 4 -1 24 27 66 37 56 3 -3 -2 -13
-10 -22z m-118 -28 c-7 -9 -15 -13 -18 -10 -3 2 1 11 8 20 7 9 15 13 18 10 3
-2 -1 -11 -8 -20z m186 10 c-10 -8 -23 -12 -28 -9 -14 9 2 24 25 24 21 -1 21
-1 3 -15z m229 -5 c3 -5 -1 -10 -9 -10 -9 0 -16 5 -16 10 0 6 4 10 9 10 6 0
13 -4 16 -10z m222 -32 c-3 -7 -5 -2 -5 12 0 14 2 19 5 13 2 -7 2 -19 0 -25z
m-397 -9 c0 -5 -6 -9 -14 -9 -7 0 -19 -7 -26 -15 -14 -17 -40 -20 -40 -5 0 6
14 19 32 30 31 18 48 18 48 -1z m-280 -59 c0 -5 -2 -10 -4 -10 -3 0 -8 5 -11
10 -3 6 -1 10 4 10 6 0 11 -4 11 -10z m1124 -170 c6 -43 5 -44 -9 -20 -8 14
-14 38 -15 55 0 43 16 18 24 -35z m-997 18 c-3 -7 -5 -2 -5 12 0 14 2 19 5 13
2 -7 2 -19 0 -25z m614 -15 c-4 -28 -6 -32 -9 -15 -3 22 3 52 11 52 1 0 1 -17
-2 -37z m489 -17 c0 -26 -6 -18 -14 19 -5 22 -4 26 4 15 5 -8 10 -24 10 -34z
m-380 -6 c0 -11 -2 -20 -4 -20 -2 0 -6 9 -9 20 -3 11 -1 20 4 20 5 0 9 -9 9
-20z m500 -10 c0 -5 -4 -10 -10 -10 -5 0 -10 5 -10 10 0 6 5 10 10 10 6 0 10
-4 10 -10z m-1610 -10 c0 -5 -5 -10 -11 -10 -5 0 -7 5 -4 10 3 6 8 10 11 10 2
0 4 -4 4 -10z m2026 -70 c9 -46 -5 -32 -16 15 -5 22 -5 34 1 28 5 -5 12 -24
15 -43z m-2006 -16 c0 -19 -4 -34 -10 -34 -5 0 -10 10 -10 23 0 18 -2 19 -10
7 -5 -8 -10 -27 -10 -42 0 -16 -4 -28 -10 -28 -6 0 -5 -10 2 -25 9 -19 9 -28
0 -37 -16 -16 -21 -8 -28 48 -4 38 -3 46 6 34 10 -12 11 -11 7 9 -7 30 12 73
30 67 7 -3 13 1 13 10 0 8 5 12 10 9 6 -3 10 -22 10 -41z m1087 -6 c-2 -13 -4
-5 -4 17 -1 22 1 32 4 23 2 -10 2 -28 0 -40z m1143 -41 c0 -5 -4 -5 -10 -2 -5
3 -10 14 -10 23 0 15 2 15 10 2 5 -8 10 -19 10 -23z m130 -26 c0 -6 -4 -13
-10 -16 -5 -3 -10 1 -10 9 0 9 5 16 10 16 6 0 10 -4 10 -9z m-133 -33 c-3 -8
-6 -5 -6 6 -1 11 2 17 5 13 3 -3 4 -12 1 -19z m242 -38 c0 -10 -3 -8 -9 5 -12
27 -12 43 0 25 5 -8 9 -22 9 -30z m-2069 -94 c0 -3 -4 -8 -10 -11 -5 -3 -10
-1 -10 4 0 6 5 11 10 11 6 0 10 -2 10 -4z m2480 -31 c7 -8 8 -15 2 -15 -5 0
-15 7 -22 15 -7 8 -8 15 -2 15 5 0 15 -7 22 -15z m-2920 -107 c0 -19 -16 -5
-17 14 -2 18 0 20 7 8 5 -8 10 -18 10 -22z m30 -63 c7 -9 8 -15 2 -15 -5 0
-12 7 -16 15 -3 8 -4 15 -2 15 2 0 9 -7 16 -15z m1690 -170 c0 -8 -2 -15 -4
-15 -2 0 -6 7 -10 15 -3 8 -1 15 4 15 6 0 10 -7 10 -15z m-100 -34 c6 -11 6
-22 1 -25 -5 -3 -11 5 -13 19 -6 30 -2 32 12 6z m80 -161 c0 -11 -4 -20 -10
-20 -5 0 -10 9 -10 20 0 11 5 20 10 20 6 0 10 -9 10 -20z m123 -110 c3 -11 1
-20 -4 -20 -5 0 -9 9 -9 20 0 11 2 20 4 20 2 0 6 -9 9 -20z m74 -12 c-3 -8 -6
-5 -6 6 -1 11 2 17 5 13 3 -3 4 -12 1 -19z m-7 -79 c0 -18 -4 -28 -10 -24 -5
3 -10 20 -10 36 0 18 4 28 10 24 6 -3 10 -20 10 -36z m184 6 c-4 -8 -8 -15
-10 -15 -2 0 -4 7 -4 15 0 8 4 15 10 15 5 0 7 -7 4 -15z m1206 -5 c8 -5 12
-11 9 -14 -3 -3 -14 1 -25 9 -21 16 -8 20 16 5z m-1150 -56 c0 -8 -4 -12 -10
-9 -5 3 -10 10 -10 16 0 5 5 9 10 9 6 0 10 -7 10 -16z m170 -44 c0 -5 -2 -10
-4 -10 -3 0 -8 5 -11 10 -3 6 -1 10 4 10 6 0 11 -4 11 -10z m-160 -10 c0 -5 7
-7 15 -4 22 9 18 -9 -5 -29 -27 -23 -30 -22 -30 13 0 17 5 30 10 30 6 0 10 -4
10 -10z m170 -30 c0 -11 -4 -20 -10 -20 -5 0 -10 9 -10 20 0 11 5 20 10 20 6
0 10 -9 10 -20z m-30 -4 c0 -2 -9 -6 -20 -9 -11 -3 -18 -1 -14 4 5 9 34 13 34
5z m320 -206 c0 -5 -2 -10 -4 -10 -3 0 -8 5 -11 10 -3 6 -1 10 4 10 6 0 11 -4
11 -10z m-2251 -1313 c1 -10 7 -20 15 -23 8 -3 22 -22 30 -42 9 -20 20 -44 25
-52 5 -8 17 -34 26 -57 10 -23 25 -45 34 -48 12 -5 10 -9 -14 -19 -20 -9 -34
-10 -42 -3 -9 6 -13 6 -14 -2 -1 -6 -3 -15 -4 -21 -1 -5 -3 -13 -4 -16 -2 -12
-33 20 -42 45 -7 18 -13 21 -21 13 -6 -6 -23 -8 -38 -6 -17 4 -32 0 -42 -9
-13 -14 -16 -10 -28 35 -12 42 -17 48 -34 44 -11 -3 -26 0 -34 7 -8 6 -22 12
-31 12 -22 0 -22 45 0 68 10 9 22 17 28 17 5 0 33 27 62 60 30 33 58 60 62 60
5 0 16 8 25 17 16 15 18 14 29 -23 6 -21 12 -47 12 -57z m1618 57 c-9 -9 -28
6 -21 18 4 6 10 6 17 -1 6 -6 8 -13 4 -17z m13 -64 c0 -5 -2 -10 -4 -10 -3 0
-8 5 -11 10 -3 6 -1 10 4 10 6 0 11 -4 11 -10z m-114 -47 c-11 -11 -19 6 -11
24 8 17 8 17 12 0 3 -10 2 -21 -1 -24z m154 -49 c0 -22 -2 -25 -15 -14 -12 10
-13 16 -4 26 16 20 19 18 19 -12z m-235 -2 c-3 -3 -11 0 -18 7 -9 10 -8 11 6
5 10 -3 15 -9 12 -12z m-1720 -32 c-3 -5 -10 -10 -16 -10 -5 0 -9 5 -9 10 0 6
7 10 16 10 8 0 12 -4 9 -10z m680 0 c3 -5 -1 -10 -9 -10 -9 0 -16 5 -16 10 0
6 4 10 9 10 6 0 13 -4 16 -10z m1055 0 c0 -5 -7 -7 -15 -4 -8 4 -15 8 -15 10
0 2 7 4 15 4 8 0 15 -4 15 -10z m-220 -37 c0 -21 -3 -24 -9 -14 -5 8 -7 20 -4
28 8 21 13 15 13 -14z m-596 -42 c17 -17 18 -23 8 -30 -10 -6 -7 -10 13 -15
33 -9 60 -34 70 -66 4 -14 15 -31 24 -38 14 -11 12 -12 -14 -10 -26 3 -30 7
-27 28 3 20 1 23 -9 13 -20 -20 -18 -51 5 -59 20 -6 20 -7 -2 -11 -13 -3 -34
3 -48 12 -21 14 -28 14 -41 3 -15 -11 -16 -10 -9 12 8 26 8 88 1 100 -3 4 -24
5 -47 3 -35 -4 -48 0 -72 20 -18 16 -24 27 -17 31 6 4 11 16 11 28 0 17 3 18
15 8 16 -13 35 -6 35 15 0 18 72 -13 104 -44z m-400 -4 c8 -13 7 -20 -4 -27
-11 -7 -17 -4 -22 8 -17 42 3 56 26 19z m1153 -29 c-3 -8 -6 -5 -6 6 -1 11 2
17 5 13 3 -3 4 -12 1 -19z m-1805 -13 c-2 -14 -11 -25 -18 -25 -12 0 -11 5 2
25 9 14 17 25 19 25 1 0 0 -11 -3 -25z m1136 3 c19 -19 14 -30 -8 -18 -11 6
-20 15 -20 20 0 14 14 12 28 -2z m-468 -12 c0 -8 9 -18 21 -21 15 -5 19 -13
16 -27 -4 -15 -3 -17 8 -8 9 8 14 7 18 -4 12 -30 -14 -27 -43 6 -17 18 -30 28
-30 23 0 -5 -6 0 -14 11 -11 14 -11 21 -3 26 18 12 27 9 27 -6z m216 0 c15
-16 19 -36 6 -36 -5 0 -14 11 -20 25 -13 28 -8 32 14 11z m-846 -11 c0 -8 -4
-15 -10 -15 -5 0 -10 7 -10 15 0 8 5 15 10 15 6 0 10 -7 10 -15z m1827 -1 c-3
-3 -12 -4 -19 -1 -8 3 -5 6 6 6 11 1 17 -2 13 -5z m-1697 -25 c0 -11 -21 -12
-46 -2 -16 6 -16 7 2 13 22 8 44 2 44 -11z m76 -13 c10 -8 16 -18 12 -22 -10
-9 -58 12 -58 26 0 14 23 12 46 -4z m681 -1 c-4 -8 -2 -17 3 -20 6 -4 10 -10
10 -16 0 -5 -10 1 -21 12 -17 17 -19 23 -8 30 19 12 22 11 16 -6z m-607 -25
c0 -5 -2 -10 -4 -10 -3 0 -8 5 -11 10 -3 6 -1 10 4 10 6 0 11 -4 11 -10z m40
-10 c0 -5 -7 -10 -16 -10 -8 0 -12 5 -9 10 3 6 10 10 16 10 5 0 9 -4 9 -10z
m530 -10 c0 -5 -4 -10 -10 -10 -5 0 -10 5 -10 10 0 6 5 10 10 10 6 0 10 -4 10
-10z m-160 -20 c0 -5 -2 -10 -4 -10 -3 0 -8 5 -11 10 -3 6 -1 10 4 10 6 0 11
-4 11 -10z m56 -28 c-22 -5 -30 3 -21 18 5 8 11 7 22 -2 15 -12 14 -13 -1 -16z
m57 -94 c-10 -21 -12 -21 -18 -5 -10 25 2 54 17 39 8 -8 8 -18 1 -34z m-576
-14 c-3 -3 -12 -4 -19 -1 -8 3 -5 6 6 6 11 1 17 -2 13 -5z m321 -33 c3 -19 0
-22 -16 -17 -11 4 -24 2 -28 -5 -4 -7 -2 -10 7 -7 16 5 39 -14 39 -32 0 -7 7
-10 15 -6 12 4 13 2 3 -14 -7 -10 -15 -17 -19 -14 -10 6 -19 -23 -13 -40 3 -8
12 -12 20 -9 9 3 14 -1 14 -12 0 -14 -6 -16 -37 -11 -28 5 -34 4 -23 -4 13 -9
13 -12 -2 -21 -22 -12 -23 -32 -3 -49 13 -11 13 -14 -2 -25 -13 -9 -20 -10
-25 -3 -4 8 -12 6 -23 -5 -20 -21 -20 -21 -39 -1 -15 14 -16 13 -16 -10 0 -14
-4 -26 -10 -26 -15 0 -12 23 5 46 17 22 19 44 5 44 -5 0 -12 -11 -16 -24 -3
-14 -13 -27 -21 -30 -8 -4 -13 -13 -9 -21 7 -18 -10 -20 -18 -2 -3 6 -5 1 -4
-13 1 -29 -10 -60 -23 -60 -5 0 -9 10 -9 23 -1 12 -7 39 -15 61 -15 43 -10 68
13 64 22 -4 27 -28 7 -28 -14 0 -15 -3 -5 -14 23 -28 35 -7 35 59 l1 65 -36
-6 c-19 -4 -39 -9 -44 -12 -5 -3 -34 -7 -65 -9 -31 -1 -69 -4 -86 -6 -35 -4
-165 -46 -181 -58 -14 -11 -77 -7 -86 6 -4 5 -14 2 -26 -8 -10 -9 -24 -17 -30
-17 -7 0 -12 -7 -12 -15 0 -20 -19 -19 -26 0 -4 10 -14 14 -28 10 -11 -2 -15
-2 -9 1 8 3 11 15 7 29 -4 17 -1 25 13 29 21 6 143 35 188 43 16 3 36 12 44
20 8 8 25 13 37 10 13 -2 21 -1 19 3 -2 4 12 14 31 23 42 20 47 21 39 5 -4 -7
-1 -6 7 2 17 20 78 46 153 66 74 19 215 27 215 12 0 -6 11 1 25 16 30 32 59
31 63 -3z m-468 10 c0 -6 -4 -13 -10 -16 -5 -3 -10 1 -10 9 0 9 5 16 10 16 6
0 10 -4 10 -9z m0 -51 c0 -5 -7 -10 -15 -10 -8 0 -15 5 -15 10 0 6 7 10 15 10
8 0 15 -4 15 -10z m-123 -16 c-3 -3 -12 -4 -19 -1 -8 3 -5 6 6 6 11 1 17 -2
13 -5z m301 -251 c-1 -10 1 -24 6 -32 6 -9 5 -12 -5 -9 -17 6 -25 58 -9 58 6
0 10 -8 8 -17z m-31 -28 c8 -22 -6 -33 -17 -15 -13 20 -12 30 0 30 6 0 13 -7
17 -15z m68 -66 c-10 -15 -25 -10 -19 6 4 8 10 12 15 9 5 -3 7 -10 4 -15z
m-75 -54 c-7 -8 -17 -12 -22 -9 -5 3 -1 12 9 19 22 17 30 11 13 -10z m-80 -10
c-8 -10 -9 -23 -3 -42 13 -38 -20 -95 -51 -91 -13 2 -22 11 -22 23 -1 11 -5
29 -10 39 -6 16 -4 18 10 13 26 -10 48 17 40 48 -5 22 -3 25 21 25 23 0 25 -2
15 -15z m-90 -136 c0 -4 -4 -19 -10 -34 -9 -24 -10 -25 -28 -8 -19 19 -21 36
-8 66 8 17 10 17 27 1 11 -9 19 -21 19 -25z m2265 31 c-3 -5 -10 -10 -16 -10
-5 0 -9 5 -9 10 0 6 7 10 16 10 8 0 12 -4 9 -10z m65 -31 c0 -6 -9 -13 -20
-16 -11 -3 -20 -14 -20 -25 0 -24 -19 -19 -34 8 -6 10 -15 22 -21 26 -6 5 -3
8 7 8 9 0 19 -6 22 -12 4 -10 9 -8 18 5 14 19 48 23 48 6z m20 -59 c0 -5 -7
-10 -16 -10 -8 0 -12 5 -9 10 3 6 10 10 16 10 5 0 9 -4 9 -10z m330 -73 c13
-28 47 -105 77 -169 40 -84 56 -133 60 -175 10 -107 -44 -439 -82 -514 -25
-48 -311 -439 -360 -491 -53 -57 -75 -60 -192 -24 -151 47 -337 91 -429 101
-70 8 -109 -5 -99 -33 3 -13 -5 -23 -28 -37 -17 -10 -35 -23 -38 -28 -9 -13
-170 -16 -166 -4 2 6 45 32 96 59 100 51 161 96 256 187 53 50 163 148 464
411 168 146 272 263 322 362 72 144 84 212 65 378 -7 63 -7 64 12 47 10 -9 29
-41 42 -70z m-3065 53 c3 -5 1 -10 -4 -10 -6 0 -11 5 -11 10 0 6 2 10 4 10 3
0 8 -4 11 -10z m2665 0 c0 -5 -7 -10 -16 -10 -8 0 -12 5 -9 10 3 6 10 10 16
10 5 0 9 -4 9 -10z m85 -29 c-8 -14 -35 -14 -35 0 0 6 7 9 15 5 8 -3 15 0 15
6 0 6 3 9 6 5 3 -3 3 -10 -1 -16z m-30 -39 l40 -7 -23 -22 -23 -23 -9 25 c-12
31 -45 35 -37 5 3 -11 1 -20 -5 -20 -6 0 -8 11 -6 25 3 13 0 26 -5 28 -6 2 -7
9 -3 16 6 9 11 9 19 -4 7 -8 30 -19 52 -23z m-89 -8 c-3 -9 -6 -21 -6 -27 0
-8 -3 -8 -10 -1 -12 12 -3 44 12 44 6 0 7 -7 4 -16z m154 -44 c0 -5 -9 -10
-20 -10 -11 0 -20 5 -20 10 0 6 9 10 20 10 11 0 20 -4 20 -10z m-57 -57 c-3
-7 -11 -13 -19 -13 -17 0 -17 5 -2 30 13 21 30 8 21 -17z m267 -29 c0 -8 -4
-12 -10 -9 -6 3 -11 -5 -12 -19 -1 -14 -2 -39 -3 -55 -2 -33 -13 -53 -25 -46
-4 3 -6 -4 -3 -14 3 -13 -1 -21 -14 -25 -10 -3 -26 -26 -37 -52 -13 -31 -23
-43 -33 -40 -10 4 -12 2 -5 -11 7 -11 5 -25 -7 -43 -28 -46 -70 -90 -82 -88
-6 2 -13 -4 -14 -13 -3 -18 -105 -118 -140 -136 -12 -7 -25 -19 -29 -28 -3 -9
-14 -15 -23 -13 -11 2 -17 -3 -16 -12 2 -8 -6 -21 -17 -28 -17 -10 -20 -10
-20 3 0 8 5 15 11 15 8 0 9 4 0 13 -6 8 -7 18 -3 23 4 4 -2 2 -12 -6 -17 -13
-19 -13 -14 0 2 8 15 16 27 18 16 3 20 8 16 23 -4 13 -2 19 8 19 12 0 13 7 7
35 -5 22 -4 38 2 41 7 4 4 10 -6 16 -15 8 -15 11 -1 24 9 10 13 24 9 39 -5 20
-3 22 25 19 16 -2 33 1 36 6 3 6 1 10 -5 10 -6 0 -8 5 -4 11 7 12 28 -3 30
-21 1 -6 2 -14 3 -20 1 -12 68 -13 75 -1 3 5 -1 11 -9 15 -8 3 -17 0 -21 -6
-4 -7 -9 -6 -15 3 -13 21 -11 33 4 21 18 -15 57 4 57 28 0 11 4 20 9 20 12 0
20 -58 9 -64 -5 -2 -3 -3 4 -2 8 2 12 14 10 30 -4 33 11 53 55 71 18 8 33 18
33 24 0 5 11 22 25 37 14 15 25 36 25 46 0 11 5 28 10 39 9 16 15 17 31 8 12
-6 23 -8 27 -5 3 3 0 6 -6 6 -7 0 -12 7 -12 15 0 8 -3 14 -7 14 -20 -3 -24 2
-13 16 7 9 10 19 6 22 -4 4 8 15 26 25 41 21 38 21 38 2z m-2390 -353 c0 -5
-7 -11 -15 -15 -15 -5 -20 5 -8 17 9 10 23 9 23 -2z m138 -108 c0 -16 1 -107
2 -203 1 -96 5 -194 10 -217 4 -24 4 -43 0 -43 -11 0 -18 89 -25 308 -2 100
-1 182 4 182 4 0 8 -12 9 -27z m1749 -29 c-3 -3 -12 -4 -19 -1 -8 3 -5 6 6 6
11 1 17 -2 13 -5z m17 -19 c-7 -16 -24 -21 -24 -6 0 8 7 13 27 20 1 1 0 -6 -3
-14z m-41 -163 c-14 -14 -21 -16 -32 -8 -12 9 -13 8 -8 -6 4 -12 2 -15 -9 -11
-29 11 -13 28 24 24 6 -1 12 3 12 9 0 5 7 10 15 10 12 0 12 -3 -2 -18z m-77
-55 c2 -14 -2 -16 -19 -11 -19 6 -20 5 -9 -8 10 -13 10 -17 -2 -21 -22 -9 -27
6 -13 37 13 29 39 31 43 3z m-78 -18 c-9 -5 -15 -16 -12 -23 3 -7 -1 -16 -9
-19 -10 -4 -17 2 -21 15 -6 27 32 64 48 48 8 -8 6 -14 -6 -21z m758 -136 c-16
-49 -76 -119 -76 -89 0 8 14 30 30 48 17 18 36 51 42 72 7 21 14 34 16 27 2
-6 -3 -32 -12 -58z m-2010 -66 c21 -32 34 -37 108 -37 27 -1 86 -25 86 -35 0
-3 -13 -3 -30 0 -16 3 -30 1 -30 -4 0 -7 47 -19 110 -27 55 -6 242 -101 297
-149 25 -21 26 -24 9 -25 -18 0 -90 29 -126 50 -93 57 -148 83 -220 103 -47
14 -99 33 -116 43 -29 17 -33 16 -105 -5 -40 -12 -91 -33 -111 -46 -20 -13
-48 -27 -61 -31 -14 -3 -28 -12 -31 -20 -3 -8 -15 -14 -27 -14 -13 0 -19 -5
-16 -13 6 -17 -17 -37 -32 -27 -7 4 -11 22 -9 41 2 26 7 33 21 31 11 -2 17 4
17 18 0 18 10 25 32 21 4 0 10 9 14 22 10 30 45 67 67 67 9 0 16 6 15 13 -2 6
3 11 11 9 7 -2 24 7 37 19 12 11 27 18 33 15 5 -4 12 -2 16 4 10 16 19 12 41
-23z m34 3 c0 -5 -4 -10 -10 -10 -5 0 -10 5 -10 10 0 6 5 10 10 10 6 0 10 -4
10 -10z m1905 -162 c-9 -31 -32 -71 -53 -94 -41 -44 -102 -135 -102 -151 0 -6
-7 -13 -15 -17 -8 -3 -12 -12 -9 -21 5 -13 9 -12 22 7 9 13 23 30 30 38 8 8
21 28 28 45 15 37 53 75 40 40 -110 -286 -141 -375 -167 -485 -25 -107 -111
-416 -149 -535 -16 -49 -34 -110 -40 -135 -34 -131 -474 -1389 -530 -1513 -26
-57 -35 -58 -15 -2 8 22 14 50 15 62 0 26 -20 73 -31 73 -8 0 -18 99 -22 208
-1 46 -5 61 -15 57 -10 -4 -12 19 -11 104 1 59 -1 113 -5 119 -4 6 -7 47 -7
90 0 46 -6 90 -13 104 -11 20 -12 45 -5 109 17 161 20 249 9 249 -7 0 -8 56
-4 183 10 302 1 239 -46 -313 -15 -175 -107 -759 -129 -820 -5 -14 -19 -63
-31 -110 -12 -47 -50 -175 -85 -285 -35 -110 -71 -234 -79 -275 -9 -41 -26
-113 -37 -160 -11 -47 -29 -127 -39 -178 -11 -51 -21 -96 -24 -101 -3 -5 -19
-76 -36 -157 -16 -82 -37 -180 -45 -219 -9 -38 -20 -95 -26 -125 -5 -30 -16
-82 -24 -115 -8 -33 -16 -73 -18 -90 -3 -16 -8 -37 -11 -45 -3 -8 -8 -28 -10
-45 -3 -16 -14 -70 -25 -120 -11 -49 -22 -107 -26 -127 -3 -21 -9 -38 -14 -38
-4 0 -6 -25 -3 -55 3 -33 0 -55 -5 -55 -6 0 -8 -11 -6 -23 4 -22 2 -23 -26
-19 -34 5 -43 22 -11 22 30 0 24 15 -12 33 -29 14 -33 14 -36 1 -5 -22 -26
-11 -32 17 -6 28 -50 41 -50 15 0 -9 6 -13 15 -10 9 4 16 -3 21 -20 4 -17 13
-26 25 -26 21 0 25 -15 8 -26 -8 -4 -8 -9 0 -17 17 -17 13 -26 -9 -20 -11 3
-20 13 -20 23 0 10 -7 21 -16 24 -8 3 -13 10 -9 15 3 6 -4 15 -15 21 -12 7
-19 18 -16 25 3 8 0 17 -5 21 -12 7 16 29 46 36 19 5 19 5 2 13 -13 5 -28 1
-46 -13 -17 -12 -37 -19 -48 -16 -16 5 -21 -1 -26 -25 -9 -42 -41 -42 -56 -1
-12 37 -16 37 -17 4 -2 -28 -10 -41 -20 -31 -7 7 -22 72 -29 132 -3 22 -9 49
-14 60 -5 11 -16 56 -26 100 -9 44 -24 100 -32 125 -8 24 -20 74 -28 110 -7
36 -19 83 -25 105 -6 22 -16 63 -20 90 -5 28 -13 67 -19 88 -5 20 -6 47 -3 59
3 13 1 19 -5 15 -14 -9 -32 60 -28 106 4 42 -1 47 -16 15 -9 -22 -9 -22 -5 2
3 14 8 66 11 115 3 50 18 137 32 194 20 86 23 111 14 140 -5 20 -13 62 -17 94
-4 32 -11 60 -16 64 -6 3 -8 -2 -4 -13 8 -30 14 -135 9 -176 -5 -33 -8 -36
-23 -28 -19 10 -28 37 -34 110 -5 57 -16 102 -28 117 -5 7 -8 29 -7 50 2 21
-1 38 -5 38 -5 0 -10 -27 -11 -60 -3 -85 -4 -88 -17 -82 -16 5 -21 -43 -7 -60
7 -7 6 -14 -1 -18 -5 -3 -11 -18 -12 -33 -3 -61 -17 229 -27 603 -18 600 -20
722 -11 700 4 -11 5 -26 3 -32 -3 -7 0 -13 5 -13 6 0 14 27 18 61 4 39 10 56
15 47 5 -8 9 8 9 42 0 59 20 223 75 630 51 369 58 451 52 590 -4 90 -1 134 8
160 7 19 16 71 20 115 3 44 8 81 9 83 2 1 11 0 20 -4 12 -5 16 -16 14 -36 -3
-29 15 -50 36 -42 13 5 56 -31 56 -47 0 -7 11 -9 28 -5 20 5 23 4 12 -4 -13
-8 -10 -14 15 -34 17 -14 37 -23 47 -20 22 7 36 -17 16 -30 -13 -8 -10 -13 19
-33 18 -13 41 -23 49 -23 23 0 102 38 106 52 3 7 12 9 22 5 9 -4 14 -11 11
-17 -3 -5 1 -10 10 -10 13 0 14 4 5 20 -6 11 -15 20 -21 20 -6 0 -24 14 -41
30 l-30 30 25 0 c36 0 117 -48 117 -70 0 -10 5 -20 11 -22 6 -2 14 -19 19 -38
l8 -35 1 40 c1 23 -4 46 -11 53 -9 9 -2 12 33 13 24 1 47 1 52 0 4 0 7 4 7 10
0 5 5 7 12 3 8 -5 4 -14 -13 -27 l-24 -20 23 6 c16 4 25 0 29 -11 3 -9 22 -60
43 -112 35 -90 51 -143 65 -217 4 -18 13 -37 22 -41 9 -6 13 -20 11 -38 -2
-22 -9 -30 -28 -32 -57 -7 -88 -23 -100 -53 -7 -16 -11 -32 -9 -34 10 -9 90
-22 94 -15 3 5 -13 11 -35 15 -54 9 -50 19 7 23 26 1 50 7 54 13 13 21 22 -12
27 -101 4 -81 2 -96 -37 -221 -23 -74 -53 -168 -66 -209 -26 -83 -41 -159 -26
-125 5 11 10 15 10 8 1 -6 10 -9 21 -6 14 4 20 0 20 -11 0 -19 21 -21 38 -4
20 20 13 3 -9 -23 -18 -21 -18 -24 -5 -27 19 -4 21 -33 4 -50 -9 -9 -7 -12 10
-12 16 0 22 6 22 21 0 16 4 19 20 14 17 -5 20 -2 20 24 0 16 4 32 8 35 9 5 15
116 16 271 1 55 4 102 7 105 4 3 2 29 -4 58 -9 43 -9 55 3 62 10 6 11 12 2 22
-6 8 -13 34 -15 59 -2 25 -7 51 -10 56 -4 6 -5 36 -3 67 2 34 0 59 -7 63 -6 4
13 12 43 19 76 18 370 11 385 -9 5 -8 16 -12 24 -9 12 4 13 -27 8 -204 -5
-183 -4 -203 7 -160 8 26 19 52 25 55 8 6 9 19 3 47 -5 21 -5 51 -1 67 4 15 5
44 2 65 -3 20 -6 60 -7 87 -1 59 -11 68 -81 84 -64 14 -246 32 -257 25 -5 -3
-17 -3 -26 1 -9 4 -32 7 -49 6 -25 -2 -33 2 -33 14 0 9 -7 23 -16 32 -11 11
-12 19 -5 26 13 13 14 47 2 47 -5 0 -14 19 -19 43 -14 58 -50 162 -78 224 -13
28 -24 63 -24 77 0 14 -9 31 -22 40 -18 13 -19 16 -5 16 20 0 23 16 5 23 -10
4 -10 8 1 15 8 6 10 12 3 16 -17 10 -56 95 -48 103 7 8 34 9 331 13 105 2 129
4 99 10 -53 11 -386 40 -453 40 -27 0 -53 5 -57 12 -5 7 -2 9 8 5 11 -4 18 1
21 15 4 15 11 19 26 15 12 -3 19 -2 16 3 -4 6 16 9 125 13 14 0 31 7 39 14 11
11 16 11 29 1 12 -10 14 -10 8 0 -5 8 0 12 13 12 11 0 29 9 40 21 20 22 22 22
252 17 41 -1 81 2 87 6 7 4 12 2 12 -6 1 -9 5 -7 14 5 7 9 18 17 24 17 5 0 23
16 39 36 16 20 35 35 42 33 8 -3 -3 -20 -29 -47 -24 -23 -40 -45 -37 -48 7 -7
134 32 162 50 26 17 93 25 91 11 -1 -5 -6 -17 -11 -25 -12 -18 -126 -76 -170
-86 -16 -4 -36 -11 -43 -17 -10 -8 -16 -7 -22 3 -11 18 -17 12 -22 -22 -3 -23
3 -30 43 -52 27 -14 50 -21 56 -15 4 4 60 11 123 14 63 3 130 8 148 11 34 7
47 -11 15 -19 -64 -18 -163 -29 -212 -24 -65 7 -81 0 -85 -36 -1 -14 -9 -33
-16 -42 -7 -9 -14 -37 -15 -64 -1 -26 -4 -51 -7 -57 -3 -5 -9 -37 -13 -71 -4
-35 -11 -60 -16 -57 -9 5 -7 -17 4 -46 3 -8 7 -22 10 -30 2 -8 7 14 11 50 7
60 11 68 54 111 48 47 55 54 85 102 11 17 26 27 42 27 14 0 42 9 62 20 21 11
42 20 48 20 11 0 44 22 75 52 10 9 20 15 22 13 2 -2 19 9 38 25 33 29 68 41
55 20 -3 -5 -13 -10 -21 -10 -8 0 -14 -5 -14 -10 0 -6 -34 -49 -77 -97 -97
-109 -113 -125 -198 -198 -152 -130 -178 -157 -181 -182 -2 -15 -9 -30 -16
-34 -9 -6 -9 -9 -1 -9 6 0 10 -8 8 -17 -1 -10 0 -13 2 -8 3 6 40 39 83 75 43
35 78 67 77 70 -1 3 22 28 51 57 28 28 52 56 52 62 0 6 4 10 8 8 9 -2 152 148
152 160 0 5 12 16 26 27 29 21 57 8 36 -17 -7 -8 -9 -17 -5 -21 4 -4 -1 -4
-11 0 -15 6 -17 3 -12 -12 4 -14 -6 -32 -34 -63 -64 -70 -38 -59 53 22 46 41
94 78 105 81 12 4 21 10 19 14 -3 11 53 62 68 62 8 0 15 9 15 19 0 11 5 21 11
23 5 2 31 31 57 65 73 96 234 284 240 279 2 -3 -3 -29 -13 -58z m-2245 -100
c0 -33 -17 -19 -18 14 -1 23 2 28 8 18 6 -8 10 -23 10 -32z m733 -95 c-7 -2
-19 -2 -25 0 -7 3 -2 5 12 5 14 0 19 -2 13 -5z m937 -23 c0 -5 -12 -10 -26
-10 -14 0 -23 4 -19 10 3 6 15 10 26 10 10 0 19 -4 19 -10z m160 -134 c0 -2
-7 -9 -15 -16 -12 -10 -15 -10 -15 4 0 9 7 16 15 16 8 0 15 -2 15 -4z m-1465
-77 c11 -17 -1 -21 -15 -4 -8 9 -8 15 -2 15 6 0 14 -5 17 -11z m-361 -54 c3
-9 0 -15 -9 -15 -8 0 -15 7 -15 15 0 8 4 15 9 15 5 0 11 -7 15 -15z m551 -40
c4 -21 3 -25 -3 -15 -15 24 -26 67 -14 55 6 -5 13 -23 17 -40z m-273 17 c-7
-2 -12 -10 -12 -18 0 -8 -7 -14 -16 -14 -9 0 -12 5 -8 13 16 24 29 35 39 29 5
-3 4 -7 -3 -10z m-197 -30 c-3 -3 -11 0 -18 7 -9 10 -8 11 6 5 10 -3 15 -9 12
-12z m200 -42 c3 -5 -3 -10 -14 -10 -12 0 -21 5 -21 10 0 6 6 10 14 10 8 0 18
-4 21 -10z m-5 -50 c0 -5 -4 -10 -10 -10 -5 0 -10 5 -10 10 0 6 5 10 10 10 6
0 10 -4 10 -10z m40 -26 c0 -8 -4 -12 -10 -9 -5 3 -10 10 -10 16 0 5 5 9 10 9
6 0 10 -7 10 -16z m-513 -686 c-3 -8 -6 -5 -6 6 -1 11 2 17 5 13 3 -3 4 -12 1
-19z m-1 -44 c-3 -9 -9 -47 -12 -85 -4 -38 -11 -69 -16 -69 -5 0 -6 -4 -3 -10
3 -5 2 -18 -4 -28 -5 -10 -17 -65 -26 -123 -30 -189 -33 -184 -34 49 -1 215 0
222 19 222 11 0 29 14 42 30 23 32 44 41 34 14z m954 -110 c0 -8 -4 -12 -10
-9 -5 3 -10 13 -10 21 0 8 5 12 10 9 6 -3 10 -13 10 -21z m-57 -114 c3 -11 1
-18 -4 -14 -5 3 -9 12 -9 20 0 20 7 17 13 -6z m-16 -42 c-3 -8 -6 -5 -6 6 -1
11 2 17 5 13 3 -3 4 -12 1 -19z m-16 -41 c-10 -9 -11 -8 -5 6 3 10 9 15 12 12
3 -3 0 -11 -7 -18z m-16 -64 c-3 -16 -11 -32 -16 -37 -5 -6 -4 5 1 25 6 18 10
35 10 36 0 2 3 3 6 3 3 0 3 -12 -1 -27z m492 -305 c-3 -8 -6 -5 -6 6 -1 11 2
17 5 13 3 -3 4 -12 1 -19z m3 -48 c0 -5 -4 -10 -10 -10 -5 0 -10 5 -10 10 0 6
5 10 10 10 6 0 10 -4 10 -10z m-13 -52 c-3 -7 -5 -2 -5 12 0 14 2 19 5 13 2
-7 2 -19 0 -25z m-2 -345 c-2 -7 5 -17 15 -23 16 -8 20 -21 20 -61 0 -27 6
-62 14 -77 7 -15 16 -46 19 -69 6 -54 47 -143 64 -143 15 0 13 -15 -22 -135
-80 -274 -172 -564 -184 -577 -4 -4 -6 24 -6 63 0 39 -3 73 -7 75 -4 3 -8 15
-8 27 0 12 -2 40 -5 62 -3 22 -7 67 -10 100 -2 33 -8 71 -11 85 -4 14 -6 29
-5 34 5 22 -21 191 -33 215 -16 31 -4 96 39 226 15 44 35 112 45 150 24 92 40
147 47 165 7 17 34 -99 28 -117z m1305 -82 c0 -6 -4 -13 -10 -16 -5 -3 -10 1
-10 9 0 9 5 16 10 16 6 0 10 -4 10 -9z m-2660 -915 c0 -12 -5 -7 -19 24 -11
24 -11 24 3 6 9 -11 16 -24 16 -30z m100 -7 c0 -5 -4 -9 -10 -9 -5 0 -10 7
-10 16 0 8 5 12 10 9 6 -3 10 -10 10 -16z m680 -1215 c0 -8 -5 -12 -10 -9 -6
4 -8 11 -5 16 9 14 15 11 15 -7z m38 -52 c4 -38 7 -39 34 -9 14 16 18 17 14 5
-3 -10 -1 -20 4 -23 11 -7 -8 -65 -21 -65 -5 0 -9 4 -9 10 0 5 -8 9 -17 8 -45
-3 -81 3 -86 16 -9 23 12 84 31 89 35 10 47 2 50 -31z m-338 -72 c0 -5 -7 -10
-15 -10 -8 0 -15 5 -15 10 0 6 7 10 15 10 8 0 15 -4 15 -10z m-110 -80 c0 -13
-1 -13 -10 0 -5 8 -10 22 -10 30 0 13 1 13 10 0 5 -8 10 -22 10 -30z m96 26
c22 -23 17 -42 -6 -21 -19 17 -26 35 -14 35 3 0 12 -6 20 -14z m221 -118 c-3
-8 -6 -5 -6 6 -1 11 2 17 5 13 3 -3 4 -12 1 -19z m-2043 -70 c4 -46 18 -148
32 -227 13 -79 23 -146 21 -147 -3 -4 -77 103 -114 164 -21 35 -53 143 -53
179 0 20 79 113 96 113 7 0 14 -32 18 -82z m1816 47 c0 -5 -5 -3 -10 5 -5 8
-10 20 -10 25 0 6 5 3 10 -5 5 -8 10 -19 10 -25z m294 -19 c12 -4 22 -2 27 6
18 29 19 -4 2 -56 -18 -55 -41 -80 -29 -32 5 19 0 32 -19 50 -15 16 -22 31
-19 41 4 9 10 13 13 8 3 -5 15 -13 25 -17z m3686 -450 c0 -8 3 -22 6 -30 5
-12 2 -15 -10 -10 -17 7 -23 54 -6 54 6 0 10 -6 10 -14z m37 -183 c-2 -16 -4
-5 -4 22 0 28 2 40 4 28 2 -13 2 -35 0 -50z m-5726 -93 c0 -36 -8 -114 -19
-175 -20 -111 -48 -309 -78 -555 -8 -74 -16 -200 -15 -280 0 -80 -1 -289 -2
-465 l-2 -320 -38 -67 c-125 -222 -270 -546 -284 -635 -9 -53 -18 -47 -36 26
l-18 67 35 115 c30 100 91 264 157 421 17 43 57 254 89 480 8 55 11 125 6 195
-20 330 -20 321 9 459 15 71 40 183 56 249 39 164 119 563 120 600 2 54 19
-42 20 -115z m5726 8 c-3 -7 -5 -2 -5 12 0 14 2 19 5 13 2 -7 2 -19 0 -25z m0
-50 c-3 -7 -5 -2 -5 12 0 14 2 19 5 13 2 -7 2 -19 0 -25z m-140 -75 c-2 -16
-4 -3 -4 27 0 30 2 43 4 28 2 -16 2 -40 0 -55z m140 5 c-3 -7 -5 -2 -5 12 0
14 2 19 5 13 2 -7 2 -19 0 -25z m-140 -70 c-3 -8 -6 -5 -6 6 -1 11 2 17 5 13
3 -3 4 -12 1 -19z m10 -150 c-2 -13 -4 -3 -4 22 0 25 2 35 4 23 2 -13 2 -33 0
-45z m113 -18 c0 -5 -2 -10 -4 -10 -3 0 -8 5 -11 10 -3 6 -1 10 4 10 6 0 11
-4 11 -10z m-113 -92 c-2 -13 -4 -3 -4 22 0 25 2 35 4 23 2 -13 2 -33 0 -45z
m100 -25 c-2 -16 -4 -5 -4 22 0 28 2 40 4 28 2 -13 2 -35 0 -50z m21 -143 c0
-9 -3 -7 -8 5 -5 11 -8 29 -8 40 0 16 2 15 8 -5 4 -14 8 -32 8 -40z m19 -387
c-3 -10 -5 -4 -5 12 0 17 2 24 5 18 2 -7 2 -21 0 -30z m-140 -85 c-3 -8 -6 -5
-6 6 -1 11 2 17 5 13 3 -3 4 -12 1 -19z m160 -60 c-3 -7 -5 -2 -5 12 0 14 2
19 5 13 2 -7 2 -19 0 -25z m-140 -110 c-3 -8 -6 -5 -6 6 -1 11 2 17 5 13 3 -3
4 -12 1 -19z m18 -485 l-8 -28 -8 29 c-9 33 -2 53 13 38 6 -6 7 -22 3 -39z
m-4339 -930 c-10 -10 -19 5 -10 18 6 11 8 11 12 0 2 -7 1 -15 -2 -18z"/>
<path d="M5350 11227 c0 -16 6 -23 20 -24 23 -2 24 1 10 28 -14 26 -30 24 -30
-4z"/>
<path d="M4270 10700 c0 -5 5 -10 10 -10 6 0 10 5 10 10 0 6 -4 10 -10 10 -5
0 -10 -4 -10 -10z"/>
<path d="M4320 10690 c0 -5 5 -10 11 -10 5 0 7 5 4 10 -3 6 -8 10 -11 10 -2 0
-4 -4 -4 -10z"/>
<path d="M6788 9603 c7 -3 16 -2 19 1 4 3 -2 6 -13 5 -11 0 -14 -3 -6 -6z"/>
<path d="M6365 8451 c-3 -6 4 -9 15 -8 11 1 20 5 20 9 0 11 -28 10 -35 -1z"/>
<path d="M5401 8204 c0 -11 3 -14 6 -6 3 7 2 16 -1 19 -3 4 -6 -2 -5 -13z"/>
<path d="M5305 8200 c3 -5 8 -10 11 -10 2 0 4 5 4 10 0 6 -5 10 -11 10 -5 0
-7 -4 -4 -10z"/>
<path d="M6127 8181 c-2 -10 -1 -25 4 -32 6 -10 9 -4 9 19 0 36 -5 42 -13 13z"/>
<path d="M5330 8170 c0 -6 7 -13 15 -17 24 -9 27 1 5 15 -13 8 -20 8 -20 2z"/>
<path d="M6131 8034 c0 -11 3 -14 6 -6 3 7 2 16 -1 19 -3 4 -6 -2 -5 -13z"/>
<path d="M5527 7022 c5 -20 42 -47 51 -37 4 3 2 9 -4 13 -6 4 -13 15 -17 25
-9 23 -37 23 -30 -1z"/>
<path d="M5510 6978 c0 -23 11 -48 21 -48 14 0 11 24 -6 46 -12 16 -14 17 -15
2z"/>
<path d="M5438 6890 c-3 -14 -9 -34 -12 -45 -4 -11 0 -7 9 8 9 16 15 36 13 45
-3 12 -6 10 -10 -8z"/>
<path d="M5406 6794 c-4 -15 -5 -29 -1 -32 3 -3 5 0 5 7 0 7 4 10 9 7 4 -3 6
6 3 19 -6 32 -8 31 -16 -1z"/>
<path d="M4635 6368 c3 -111 2 -108 16 -108 6 0 8 16 5 43 -3 23 -8 66 -11 96
-8 85 -13 71 -10 -31z"/>
<path d="M5196 6274 c-4 -9 -4 -19 -1 -22 2 -3 7 3 11 12 4 9 4 19 1 22 -2 3
-7 -3 -11 -12z"/>
<path d="M4640 6182 c0 -5 7 -16 16 -23 14 -12 16 -11 13 5 -4 20 -29 35 -29
18z"/>
<path d="M5075 6043 c-51 -100 -52 -102 -26 -79 11 11 21 25 21 33 0 8 12 34
26 59 14 24 24 48 22 54 -2 6 -21 -25 -43 -67z"/>
<path d="M4630 6070 c0 -5 5 -10 10 -10 6 0 10 5 10 10 0 6 -4 10 -10 10 -5 0
-10 -4 -10 -10z"/>
<path d="M4648 6004 c-11 -10 4 -45 24 -55 17 -9 18 -7 12 18 -10 42 -21 53
-36 37z"/>
<path d="M5014 5923 c-3 -10 -12 -31 -20 -48 -14 -27 -14 -29 0 -15 16 15 40
80 30 80 -3 0 -7 -8 -10 -17z"/>
<path d="M4640 5852 c0 -40 3 -52 16 -52 8 0 12 5 8 11 -3 6 -9 28 -11 48 -7
54 -13 51 -13 -7z"/>
<path d="M4680 5871 c0 -6 5 -13 10 -16 6 -3 10 1 10 9 0 9 -4 16 -10 16 -5 0
-10 -4 -10 -9z"/>
<path d="M4937 5765 c-24 -50 -20 -58 4 -12 11 22 19 41 17 43 -3 2 -12 -12
-21 -31z"/>
<path d="M4650 5683 c0 -5 5 -15 10 -23 7 -12 9 -10 7 8 -1 19 -17 33 -17 15z"/>
<path d="M4867 5079 c4 -13 8 -18 11 -10 2 7 -1 18 -6 23 -8 8 -9 4 -5 -13z"/>
<path d="M4930 4568 c-12 -22 -12 -22 6 -6 10 10 15 20 12 24 -4 3 -12 -5 -18
-18z"/>
<path d="M4931 4458 c-1 -15 4 -30 9 -33 12 -7 12 12 0 40 -8 18 -9 17 -9 -7z"/>
<path d="M5136 4385 c-3 -8 -1 -15 4 -15 6 0 10 7 10 15 0 8 -2 15 -4 15 -2 0
-6 -7 -10 -15z"/>
<path d="M4980 4276 c0 -9 5 -16 10 -16 6 0 10 4 10 9 0 6 -4 13 -10 16 -5 3
-10 -1 -10 -9z"/>
<path d="M5095 4210 c3 -5 8 -10 11 -10 2 0 4 5 4 10 0 6 -5 10 -11 10 -5 0
-7 -4 -4 -10z"/>
<path d="M5070 4180 c0 -5 5 -10 10 -10 6 0 10 5 10 10 0 6 -4 10 -10 10 -5 0
-10 -4 -10 -10z"/>
<path d="M5006 4156 c8 -22 36 -30 32 -9 -2 10 -11 19 -21 21 -12 2 -15 -1
-11 -12z"/>
<path d="M5365 4160 c-3 -6 1 -7 9 -4 18 7 21 14 7 14 -6 0 -13 -4 -16 -10z"/>
<path d="M5132 4111 c7 -11 16 -17 20 -14 10 5 -10 33 -23 33 -5 0 -4 -9 3
-19z"/>
<path d="M5055 4110 c-3 -5 -1 -10 4 -10 6 0 11 5 11 10 0 6 -2 10 -4 10 -3 0
-8 -4 -11 -10z"/>
<path d="M5330 4110 c0 -5 5 -10 10 -10 6 0 10 5 10 10 0 6 -4 10 -10 10 -5 0
-10 -4 -10 -10z"/>
<path d="M5310 4080 c0 -5 5 -10 11 -10 5 0 7 5 4 10 -3 6 -8 10 -11 10 -2 0
-4 -4 -4 -10z"/>
<path d="M5357 4083 c-11 -10 -8 -43 3 -43 6 0 10 11 10 25 0 26 -2 29 -13 18z"/>
<path d="M5281 4064 c0 -11 3 -14 6 -6 3 7 2 16 -1 19 -3 4 -6 -2 -5 -13z"/>
<path d="M10450 14571 c0 -6 4 -13 10 -16 6 -3 7 1 4 9 -7 18 -14 21 -14 7z"/>
<path d="M9021 14344 c0 -11 3 -14 6 -6 3 7 2 16 -1 19 -3 4 -6 -2 -5 -13z"/>
<path d="M10453 14220 c0 -25 2 -35 4 -22 2 12 2 32 0 45 -2 12 -4 2 -4 -23z"/>
<path d="M10441 13944 c0 -11 3 -14 6 -6 3 7 2 16 -1 19 -3 4 -6 -2 -5 -13z"/>
<path d="M9052 13905 c0 -16 2 -22 5 -12 2 9 2 23 0 30 -3 6 -5 -1 -5 -18z"/>
<path d="M9050 13839 c0 -5 5 -7 10 -4 6 3 10 8 10 11 0 2 -4 4 -10 4 -5 0
-10 -5 -10 -11z"/>
<path d="M9021 13814 c0 -11 3 -14 6 -6 3 7 2 16 -1 19 -3 4 -6 -2 -5 -13z"/>
<path d="M9081 13810 c-1 -3 -4 -23 -6 -45 -3 -34 -2 -36 6 -15 6 13 8 33 6
45 -2 11 -5 18 -6 15z"/>
<path d="M9021 13774 c0 -11 3 -14 6 -6 3 7 2 16 -1 19 -3 4 -6 -2 -5 -13z"/>
<path d="M10432 13740 c0 -14 2 -19 5 -12 2 6 2 18 0 25 -3 6 -5 1 -5 -13z"/>
<path d="M10432 13670 c0 -19 2 -27 5 -17 2 9 2 25 0 35 -3 9 -5 1 -5 -18z"/>
<path d="M9020 13665 c0 -8 4 -15 10 -15 5 0 7 7 4 15 -4 8 -8 15 -10 15 -2 0
-4 -7 -4 -15z"/>
<path d="M9022 13579 c1 -36 2 -38 5 -12 3 25 8 31 21 26 18 -7 17 -5 -10 16
-17 12 -18 10 -16 -30z"/>
<path d="M10432 13600 c0 -14 2 -19 5 -12 2 6 2 18 0 25 -3 6 -5 1 -5 -13z"/>
<path d="M5970 13560 c0 -5 5 -10 10 -10 6 0 10 5 10 10 0 6 -4 10 -10 10 -5
0 -10 -4 -10 -10z"/>
<path d="M9010 13509 c0 -5 5 -7 10 -4 6 3 10 8 10 11 0 2 -4 4 -10 4 -5 0
-10 -5 -10 -11z"/>
<path d="M9012 13450 c0 -19 2 -27 5 -17 2 9 2 25 0 35 -3 9 -5 1 -5 -18z"/>
<path d="M6047 13434 c-4 -4 -7 -14 -7 -23 0 -11 3 -12 11 -4 6 6 10 16 7 23
-2 6 -7 8 -11 4z"/>
<path d="M10420 13408 c0 -25 3 -29 10 -18 13 20 13 50 0 50 -5 0 -10 -15 -10
-32z"/>
<path d="M9010 13386 c0 -14 5 -26 10 -26 6 0 10 9 10 19 0 11 -4 23 -10 26
-6 4 -10 -5 -10 -19z"/>
<path d="M9070 13370 c0 -5 5 -10 11 -10 5 0 7 5 4 10 -3 6 -8 10 -11 10 -2 0
-4 -4 -4 -10z"/>
<path d="M7705 13330 c4 -6 11 -8 16 -5 14 9 11 15 -7 15 -8 0 -12 -5 -9 -10z"/>
<path d="M9011 13258 c-1 -32 3 -58 8 -58 5 0 6 21 4 48 -7 70 -11 74 -12 10z"/>
<path d="M10422 13260 c0 -19 2 -27 5 -17 2 9 2 25 0 35 -3 9 -5 1 -5 -18z"/>
<path d="M6175 13190 c3 -5 8 -10 11 -10 2 0 4 5 4 10 0 6 -5 10 -11 10 -5 0
-7 -4 -4 -10z"/>
<path d="M9009 13137 c-2 -31 -1 -57 2 -57 11 0 18 83 9 99 -5 10 -9 -5 -11
-42z"/>
<path d="M10412 13070 c0 -19 2 -27 5 -17 2 9 2 25 0 35 -3 9 -5 1 -5 -18z"/>
<path d="M6272 13050 c0 -19 2 -27 5 -17 2 9 2 25 0 35 -3 9 -5 1 -5 -18z"/>
<path d="M9030 13075 c0 -5 5 -17 10 -25 5 -8 10 -10 10 -5 0 6 -5 17 -10 25
-5 8 -10 11 -10 5z"/>
<path d="M9000 13010 c0 -52 17 -60 22 -10 2 26 -1 41 -9 44 -9 4 -13 -6 -13
-34z"/>
<path d="M9071 13024 c0 -11 3 -14 6 -6 3 7 2 16 -1 19 -3 4 -6 -2 -5 -13z"/>
<path d="M6422 13010 c0 -14 2 -19 5 -12 2 6 2 18 0 25 -3 6 -5 1 -5 -13z"/>
<path d="M10407 13023 c-4 -3 -6 -29 -6 -57 l2 -51 7 55 c7 59 7 64 -3 53z"/>
<path d="M6745 12896 c20 -30 25 -32 25 -11 0 8 -9 19 -21 25 -20 11 -20 11
-4 -14z"/>
<path d="M9006 12889 c-9 -48 -6 -188 4 -164 4 11 6 30 3 43 -4 16 -1 22 12
22 14 0 15 2 2 14 -10 10 -13 30 -10 65 4 57 -1 67 -11 20z"/>
<path d="M10397 12898 c-2 -7 -1 -22 4 -33 6 -16 8 -14 8 13 1 33 -4 41 -12
20z"/>
<path d="M6820 12870 c0 -5 5 -10 10 -10 6 0 10 5 10 10 0 6 -4 10 -10 10 -5
0 -10 -4 -10 -10z"/>
<path d="M4878 12851 c-3 -9 -32 -11 -113 -10 -61 0 -118 -9 -125 -22 -6 -8
-25 -13 -51 -13 -36 1 -49 -4 -81 -34 -34 -32 -38 -39 -32 -70 l7 -35 -39 8
c-22 3 -43 13 -47 21 -5 8 -13 12 -18 8 -5 -3 -16 -1 -23 5 -11 9 -16 5 -25
-21 -9 -24 -14 -29 -23 -20 -18 18 -28 15 -28 -8 0 -40 -62 -11 -65 31 -1 19
-7 24 -29 24 -15 1 -31 7 -35 14 -13 20 -23 -4 -15 -35 6 -22 4 -26 -9 -21
-10 4 -18 -1 -22 -14 -4 -10 -11 -19 -16 -19 -22 0 -39 -31 -39 -71 0 -23 -5
-59 -11 -80 -16 -51 2 -142 47 -235 40 -83 42 -98 14 -89 -27 9 -25 1 8 -31
l27 -26 -50 7 -50 7 22 -21 c12 -12 29 -21 37 -21 8 0 18 -4 21 -10 3 -5 -1
-10 -10 -10 -11 0 -15 -5 -11 -16 3 -8 2 -12 -4 -9 -6 3 -10 2 -10 -4 0 -5 14
-15 30 -23 17 -7 30 -18 30 -25 0 -26 27 -17 58 21 19 23 64 73 101 111 99
102 119 133 127 193 5 41 10 52 24 52 10 0 20 5 22 10 2 7 20 7 55 -1 42 -10
54 -18 63 -40 7 -15 9 -36 6 -47 -4 -11 -2 -23 4 -27 5 -3 10 -15 10 -26 0
-10 7 -19 15 -19 18 0 20 -26 3 -34 -9 -3 -6 -11 10 -24 12 -11 22 -27 22 -36
0 -9 7 -16 15 -16 8 0 22 -11 31 -25 15 -23 67 -45 108 -45 18 0 18 1 2 19 -9
10 -16 24 -14 31 2 7 -3 15 -9 17 -7 3 -13 -3 -13 -13 0 -37 -11 -4 -16 49 -4
41 -2 57 6 57 7 0 10 -7 6 -15 -3 -8 -1 -15 4 -15 9 0 42 -66 37 -74 -1 -2 6
-12 15 -22 9 -11 16 -23 16 -29 -1 -5 12 -17 29 -25 16 -9 28 -21 25 -28 -5
-16 11 -15 26 0 10 10 15 10 20 1 4 -6 20 -17 36 -23 24 -9 31 -8 41 7 7 10
12 20 10 23 -2 3 12 7 32 8 21 2 40 -3 44 -10 7 -10 9 -10 9 0 0 7 13 12 29
12 24 0 68 17 101 38 2 2 -2 7 -10 12 -11 7 -7 12 20 24 19 8 30 15 24 16 -18
0 -26 32 -12 41 7 5 21 6 31 3 16 -5 22 4 18 34 -1 6 3 12 9 12 5 0 10 -6 10
-12 0 -17 57 46 65 72 7 23 55 27 119 9 32 -9 41 -8 48 4 5 10 20 14 43 13 20
-2 38 0 40 5 7 11 -34 23 -73 20 -21 -1 -43 6 -59 19 -16 12 -20 20 -12 21 33
2 85 -3 94 -11 17 -13 58 8 51 26 -4 12 -2 15 9 10 20 -7 19 4 -2 20 -10 7
-18 18 -19 26 0 7 -2 21 -2 31 -1 11 -9 17 -19 16 -24 -3 -54 11 -47 22 3 5
14 9 25 9 10 0 19 6 20 13 0 6 4 2 9 -10 5 -13 16 -23 24 -23 8 0 16 -6 19
-12 2 -8 8 -9 13 -4 5 5 4 11 -3 13 -7 3 -13 13 -13 23 0 22 -138 165 -198
205 -30 20 -58 29 -91 31 -27 1 -60 10 -74 19 -15 9 -30 14 -36 11 -5 -3 -24
12 -41 34 -17 22 -40 40 -50 40 -10 0 -21 3 -24 8 -2 4 -51 7 -108 6 -69 -1
-112 3 -130 12 -32 17 -35 17 -40 5z m562 -270 c0 -5 7 -12 16 -15 15 -6 15
-4 3 10 -13 16 -10 17 34 12 58 -7 64 -12 69 -58 5 -51 -25 -51 -81 0 -25 22
-51 40 -58 40 -8 0 -11 5 -8 10 8 12 25 13 25 1z m-186 -162 c10 -10 25 -15
33 -12 16 6 153 -56 153 -69 0 -11 -2 -10 -52 6 -24 8 -63 17 -87 20 -170 20
-178 22 -192 47 -10 20 -9 21 29 18 23 -3 44 1 51 8 13 14 37 7 65 -18z m-394
-315 c0 -8 -4 -12 -10 -9 -5 3 -10 10 -10 16 0 5 5 9 10 9 6 0 10 -7 10 -16z
m-693 -70 c-3 -3 -12 -4 -19 -1 -8 3 -5 6 6 6 11 1 17 -2 13 -5z m847 -49 c-6
-16 -24 -21 -24 -7 0 11 11 22 21 22 5 0 6 -7 3 -15z"/>
<path d="M9060 12828 c0 -9 5 -20 10 -23 13 -8 13 5 0 25 -8 13 -10 13 -10 -2z"/>
<path d="M10402 12805 c0 -16 2 -22 5 -12 2 9 2 23 0 30 -3 6 -5 -1 -5 -18z"/>
<path d="M6880 12800 c0 -5 5 -10 11 -10 5 0 7 5 4 10 -3 6 -8 10 -11 10 -2 0
-4 -4 -4 -10z"/>
<path d="M5252 12778 c5 -15 28 -23 28 -10 0 5 -7 13 -16 16 -10 4 -14 1 -12
-6z"/>
<path d="M4175 12750 c3 -5 8 -10 11 -10 2 0 4 5 4 10 0 6 -5 10 -11 10 -5 0
-7 -4 -4 -10z"/>
<path d="M6457 12723 c-3 -3 -3 -11 0 -19 7 -18 33 -18 33 0 0 14 -24 29 -33
19z"/>
<path d="M7060 12705 c-8 -9 -8 -15 -2 -15 12 0 26 19 19 26 -2 2 -10 -2 -17
-11z"/>
<path d="M10392 12613 c-2 -59 -1 -105 1 -103 9 10 18 210 10 210 -4 0 -9 -48
-11 -107z"/>
<path d="M8989 12603 c-7 -413 -7 -467 2 -450 6 9 7 26 4 37 -3 11 -3 25 0 30
6 9 9 134 4 180 0 8 2 77 5 153 3 87 2 137 -4 137 -6 0 -11 -38 -11 -87z"/>
<path d="M9061 12544 c0 -11 3 -14 6 -6 3 7 2 16 -1 19 -3 4 -6 -2 -5 -13z"/>
<path d="M10378 12473 c7 -3 16 -2 19 1 4 3 -2 6 -13 5 -11 0 -14 -3 -6 -6z"/>
<path d="M9050 12444 c0 -8 5 -12 10 -9 6 3 10 10 10 16 0 5 -4 9 -10 9 -5 0
-10 -7 -10 -16z"/>
<path d="M10384 12439 c-3 -6 -1 -16 5 -22 8 -8 11 -5 11 11 0 24 -5 28 -16
11z"/>
<path d="M10380 12360 c0 -5 5 -10 10 -10 6 0 10 5 10 10 0 6 -4 10 -10 10 -5
0 -10 -4 -10 -10z"/>
<path d="M7183 12320 c1 -14 7 -18 22 -15 11 2 25 4 30 4 8 1 -41 31 -51 31
-1 0 -2 -9 -1 -20z"/>
<path d="M10374 12280 c-1 -22 2 -40 7 -40 5 0 9 18 9 40 0 22 -3 40 -8 40 -4
0 -8 -18 -8 -40z"/>
<path d="M7044 12250 c-40 -17 -66 -40 -46 -40 11 0 102 50 102 56 0 7 -14 3
-56 -16z"/>
<path d="M7330 12243 c-48 -16 -107 -47 -120 -63 -8 -10 -35 -29 -60 -43 -44
-24 -66 -60 -49 -82 11 -14 -14 -130 -27 -128 -6 1 -9 -8 -7 -21 6 -28 -12
-42 -32 -26 -16 13 -10 34 6 25 5 -3 6 0 4 7 -3 8 -21 13 -45 13 -35 0 -39 -2
-34 -19 4 -11 2 -16 -4 -12 -17 10 -27 -143 -11 -168 30 -49 41 -78 35 -101
-4 -14 -12 -25 -19 -25 -41 0 -87 -97 -55 -116 7 -5 8 -3 3 6 -4 7 -2 16 6 21
22 14 33 10 19 -6 -6 -8 -9 -18 -6 -24 10 -16 71 9 112 45 21 19 42 34 47 34
15 0 -1 59 -23 87 -11 14 -20 36 -20 49 0 35 33 31 79 -11 41 -37 78 -45 87
-20 5 12 10 13 19 5 7 -6 24 -12 37 -14 13 -1 31 -6 42 -11 32 -14 51 7 52 60
1 59 -5 85 -20 85 -6 0 -22 12 -35 25 -12 14 -26 23 -30 20 -4 -2 -20 3 -35
11 -16 7 -35 14 -42 14 -8 0 -14 5 -14 10 0 6 -7 10 -15 10 -25 0 -17 14 28
44 23 16 52 42 65 57 30 37 81 47 126 25 43 -20 66 -64 67 -130 1 -58 21 -181
31 -191 3 -4 9 3 13 14 3 12 11 19 16 16 5 -4 9 -1 9 4 0 6 6 11 14 11 18 0
46 103 57 204 6 62 5 88 -7 120 -9 23 -18 51 -21 63 -17 74 -168 152 -243 126z
m-290 -455 c0 -25 -4 -38 -9 -32 -8 8 -4 74 5 74 2 0 4 -19 4 -42z"/>
<path d="M8979 12120 c0 -8 -2 -41 -4 -74 -5 -73 2 -68 15 10 6 38 6 62 0 68
-7 7 -10 5 -11 -4z"/>
<path d="M10370 12014 c0 -65 2 -115 4 -113 9 9 13 219 5 225 -5 3 -9 -45 -9
-112z"/>
<path d="M8968 11859 c-2 -61 1 -113 5 -116 9 -6 37 15 37 28 0 5 -5 8 -12 7
-9 -2 -12 23 -11 95 1 53 -2 97 -7 97 -5 0 -10 -50 -12 -111z"/>
<path d="M9915 11950 c3 -5 8 -10 11 -10 2 0 4 5 4 10 0 6 -5 10 -11 10 -5 0
-7 -4 -4 -10z"/>
<path d="M9012 11890 c0 -19 2 -27 5 -17 2 9 2 25 0 35 -3 9 -5 1 -5 -18z"/>
<path d="M9540 11879 c0 -5 5 -7 10 -4 6 3 10 8 10 11 0 2 -4 4 -10 4 -5 0
-10 -5 -10 -11z"/>
<path d="M10356 11844 c4 -16 2 -29 -5 -33 -8 -6 -8 -16 0 -39 8 -25 8 -36 -1
-47 -11 -14 -3 -21 16 -12 7 3 13 127 6 145 -8 24 -22 12 -16 -14z"/>
<path d="M6450 11850 c0 -5 5 -10 11 -10 5 0 7 5 4 10 -3 6 -8 10 -11 10 -2 0
-4 -4 -4 -10z"/>
<path d="M9030 11833 c0 -5 5 -15 10 -23 8 -12 10 -11 10 8 0 12 -4 22 -10 22
-5 0 -10 -3 -10 -7z"/>
<path d="M10101 11774 c0 -11 3 -14 6 -6 3 7 2 16 -1 19 -3 4 -6 -2 -5 -13z"/>
<path d="M9042 11750 c0 -14 2 -19 5 -12 2 6 2 18 0 25 -3 6 -5 1 -5 -13z"/>
<path d="M6550 11741 c0 -11 -3 -28 -6 -38 -5 -15 -4 -16 6 -3 9 12 10 8 6
-20 -4 -19 -11 -39 -17 -45 -8 -7 -10 -2 -7 18 6 29 -1 34 -20 15 -10 -10 -15
-10 -22 2 -13 20 -13 33 0 25 6 -3 7 1 4 9 -3 9 -10 16 -15 16 -14 0 -22 -46
-11 -67 5 -10 7 -23 5 -30 -2 -6 5 -17 16 -22 12 -7 23 -26 26 -49 11 -60 16
-72 30 -72 15 0 31 70 17 79 -5 3 -6 15 -1 26 6 17 8 17 8 3 1 -10 8 -18 16
-18 12 0 15 13 15 55 0 30 -4 55 -10 55 -5 0 -10 11 -10 24 0 13 -6 27 -12 29
-10 4 -9 8 2 16 13 9 13 11 -2 11 -11 0 -18 -8 -18 -19z"/>
<path d="M9418 11753 c7 -3 16 -2 19 1 4 3 -2 6 -13 5 -11 0 -14 -3 -6 -6z"/>
<path d="M10160 11749 c0 -5 5 -7 10 -4 6 3 10 8 10 11 0 2 -4 4 -10 4 -5 0
-10 -5 -10 -11z"/>
<path d="M9308 11713 c7 -3 16 -2 19 1 4 3 -2 6 -13 5 -11 0 -14 -3 -6 -6z"/>
<path d="M8967 11683 c-3 -5 -8 -114 -11 -243 -3 -129 -9 -308 -12 -397 -5
-119 -4 -163 5 -163 6 0 11 -5 11 -11 0 -5 -4 -7 -10 -4 -7 4 -11 -58 -12
-177 -1 -101 -2 -221 -4 -268 -1 -47 -5 -296 -9 -555 -4 -258 -8 -515 -10
-570 -1 -55 1 -107 6 -116 8 -15 114 -56 132 -51 5 1 6 -2 3 -7 -6 -8 62 -41
85 -41 6 0 17 -6 24 -12 38 -35 49 -40 80 -42 19 -2 32 1 29 5 -3 5 -1 9 4 9
4 0 15 -14 23 -31 14 -31 70 -60 97 -51 7 2 12 -2 12 -8 0 -7 7 -10 15 -6 10
3 18 -1 22 -12 11 -29 51 -64 64 -56 8 4 9 3 5 -4 -4 -7 -1 -12 7 -12 8 0 18
-7 21 -16 4 -10 14 -14 26 -11 11 3 18 0 17 -6 -1 -6 7 -13 18 -15 11 -2 27
-11 37 -19 10 -9 18 -11 22 -4 8 13 54 -5 77 -30 9 -10 28 -20 43 -23 34 -6
48 -15 41 -27 -4 -5 -1 -9 4 -9 6 0 11 4 11 9 0 5 7 12 16 15 14 5 15 4 4 -9
-10 -13 -9 -15 8 -15 11 0 22 -5 24 -11 2 -5 10 -11 18 -12 8 -2 21 -6 29 -11
8 -5 16 -3 22 5 7 11 12 12 28 2 11 -7 28 -10 37 -6 14 5 16 3 11 -11 -9 -23
15 -46 42 -39 12 3 21 1 21 -6 0 -6 8 -11 17 -11 12 0 14 3 6 11 -12 12 2 68
20 80 5 4 7 14 4 22 -3 9 1 18 10 21 24 9 27 0 9 -26 -9 -12 -16 -33 -16 -45
0 -13 -5 -23 -10 -23 -7 0 -7 -6 0 -20 6 -11 8 -20 5 -20 -3 0 2 -8 12 -19 23
-23 59 -35 68 -21 3 6 11 8 16 4 5 -3 7 -10 4 -15 -4 -5 1 -9 9 -9 20 0 20 14
1 30 -8 7 -15 17 -15 23 0 6 -7 19 -17 29 -15 17 -15 18 5 18 15 0 24 -8 28
-25 11 -43 16 -21 20 92 2 59 6 164 9 233 3 69 5 190 4 270 -1 80 -1 152 0
160 9 97 20 353 25 550 4 135 9 278 12 318 4 56 3 72 -8 72 -8 0 -9 3 -3 8 6
4 11 34 12 67 1 33 4 182 8 330 3 149 8 311 10 360 10 197 10 240 0 242 -5 1
-13 12 -18 25 -5 13 -11 18 -14 11 -2 -7 0 -20 5 -30 5 -10 8 -38 7 -63 -2
-25 2 -49 9 -53 6 -5 0 -5 -14 -2 -20 5 -22 4 -10 -5 12 -10 11 -11 -7 -7 -13
3 -23 0 -23 -5 0 -6 12 -8 30 -4 20 4 30 2 30 -7 0 -15 -15 -39 -24 -38 -18 3
-20 -1 -6 -12 17 -13 24 -107 9 -107 -5 0 -6 -7 -2 -15 3 -9 -2 -22 -13 -30
-16 -12 -17 -14 -3 -15 18 0 33 -37 18 -45 -4 -3 -6 -11 -4 -18 2 -7 6 -26 9
-44 5 -31 4 -32 -20 -23 -51 20 -63 3 -14 -18 23 -11 30 -20 30 -43 0 -18 -5
-29 -14 -29 -10 0 -15 -20 -18 -77 -3 -43 -1 -82 4 -87 14 -17 9 -26 -18 -26
-21 0 -24 -3 -19 -21 5 -13 2 -25 -6 -31 -11 -7 -11 -11 -1 -15 6 -2 12 -22
12 -43 0 -21 3 -40 8 -43 9 -5 -13 1 -35 10 -13 5 -12 1 5 -17 12 -13 20 -30
18 -37 -3 -7 -1 -15 4 -18 12 -8 1 -35 -15 -35 -7 0 -18 -7 -25 -15 -10 -12
-10 -15 4 -15 9 0 16 -7 16 -15 0 -8 5 -15 10 -15 6 0 10 -6 10 -14 0 -8 6
-17 13 -19 9 -4 9 -8 -1 -15 -8 -5 -14 -26 -15 -46 -1 -28 -5 -35 -16 -31 -9
2 -23 0 -31 -5 -12 -8 -12 -10 2 -15 9 -4 24 -5 33 -3 11 2 21 -6 26 -20 6
-16 5 -21 -2 -16 -8 4 -9 -10 -6 -45 4 -43 3 -50 -8 -41 -8 7 -29 10 -47 8
-24 -2 -33 1 -33 12 0 11 10 14 37 13 29 -2 36 1 31 12 -3 8 -12 15 -20 15 -9
0 -12 6 -8 19 7 22 -16 35 -57 32 -16 -2 -28 2 -28 8 0 6 -7 11 -16 11 -8 0
-13 4 -10 9 3 5 24 7 46 4 46 -6 56 13 13 23 -16 4 -32 9 -36 11 -10 6 31 43
47 43 6 0 4 5 -4 10 -10 6 -20 4 -31 -6 -8 -7 -21 -14 -27 -14 -7 0 -12 -7
-12 -15 0 -8 -5 -15 -11 -15 -6 0 -9 12 -6 28 2 15 2 21 0 15 -6 -18 -23 -16
-23 3 0 22 28 47 45 40 9 -3 25 -2 38 2 45 16 58 5 56 -49 -3 -69 8 -73 44
-17 14 23 15 31 5 48 -7 11 -21 20 -30 20 -10 0 -18 6 -18 14 0 26 -19 28 -52
5 l-31 -23 6 32 c5 24 3 32 -8 32 -7 0 -15 -10 -17 -22 -2 -13 -9 -22 -16 -20
-6 1 -12 -2 -12 -8 0 -5 -7 -10 -15 -10 -8 0 -15 9 -15 20 0 11 -4 20 -8 20
-13 0 -29 42 -24 63 8 39 48 6 43 -35 -1 -11 4 -18 13 -18 9 0 16 9 16 20 0
11 7 20 15 20 8 0 15 5 15 11 0 5 -8 9 -18 7 -10 -1 -31 5 -46 16 -30 19 -42
14 -48 -19 -2 -13 -12 -21 -28 -23 -22 -2 -23 -1 -7 8 23 15 22 36 -4 43 -13
4 -19 11 -16 19 3 10 -5 14 -32 14 -49 0 -86 9 -86 20 0 5 7 9 15 10 31 2 34
6 12 14 -26 11 -42 42 -24 48 15 5 16 39 1 44 -7 2 -8 20 -4 50 6 41 10 47 33
50 34 4 41 34 13 59 -22 21 -51 25 -51 7 0 -6 -3 -8 -7 -4 -4 4 -6 25 -4 47 3
43 -22 95 -40 83 -7 -4 -5 -12 5 -23 24 -27 20 -78 -9 -109 -27 -29 -31 -47
-15 -57 6 -4 13 7 16 24 7 34 34 43 34 11 0 -11 -7 -20 -15 -20 -8 0 -15 -4
-15 -10 0 -14 23 -13 38 2 9 9 12 9 12 0 0 -7 -5 -12 -11 -12 -7 0 -9 -10 -5
-24 8 -33 -2 -56 -25 -56 -11 0 -19 -7 -19 -17 0 -13 3 -14 12 -5 19 19 28 14
28 -18 0 -29 -13 -40 -25 -20 -3 6 -21 10 -38 10 -18 0 -39 5 -47 10 -11 7 -7
10 18 10 17 0 32 5 32 11 0 7 -12 10 -29 7 -23 -3 -31 0 -35 15 -3 14 -10 17
-25 12 -21 -6 -29 9 -11 20 14 9 13 42 -2 47 -7 3 -12 25 -12 56 0 33 -4 51
-10 49 -7 -2 -10 -26 -8 -58 2 -30 -1 -49 -5 -42 -4 6 -26 14 -48 18 -22 4
-46 12 -53 18 -20 16 -27 -1 -8 -22 14 -15 26 -18 53 -14 25 4 39 2 47 -8 6
-8 17 -14 24 -14 6 0 12 -4 11 -10 0 -5 -7 -9 -15 -8 -12 1 -14 -5 -10 -23 5
-18 2 -24 -10 -24 -9 0 -14 7 -12 17 4 20 -26 55 -45 52 -31 -4 -78 2 -73 9 2
4 -4 8 -14 8 -10 0 -16 -5 -13 -10 4 -5 -4 -6 -18 -3 -13 4 -32 7 -42 7 -12 0
-16 4 -10 13 4 6 6 20 5 30 -2 9 2 17 7 17 6 0 12 -4 12 -10 1 -5 2 -16 3 -22
1 -12 23 -13 54 -3 6 2 12 11 12 20 0 11 -6 14 -24 9 -18 -4 -25 -1 -29 14 -3
13 -15 22 -33 24 -45 5 -28 23 19 21 39 -3 41 -2 23 12 -11 8 -28 15 -37 15
-22 0 -22 40 1 57 13 11 10 12 -15 11 -16 -1 -36 -6 -42 -11 -9 -6 -18 -5 -28
3 -20 17 -20 -7 0 -34 15 -20 15 -20 29 0 12 15 17 17 27 7 11 -11 10 -13 0
-13 -10 0 -11 -3 -2 -13 16 -20 2 -28 -36 -21 -21 4 -33 2 -33 -5 0 -6 11 -11
25 -11 18 0 23 -4 19 -15 -4 -10 0 -15 11 -15 17 0 17 -1 2 -18 -21 -23 -22
-42 -3 -42 15 0 26 -21 26 -52 0 -14 5 -18 16 -14 9 3 27 6 40 6 16 0 24 6 24
17 0 13 3 14 12 5 9 -9 8 -18 -2 -37 -12 -22 -18 -25 -44 -19 -57 13 -126 -3
-126 -30 0 -11 -8 -12 -36 -6 -37 8 -57 27 -48 42 9 13 34 9 40 -7 4 -8 15
-15 25 -15 10 0 19 7 19 15 0 8 -7 15 -15 15 -8 0 -15 5 -15 10 0 6 17 10 38
10 21 0 41 3 45 6 6 7 -12 45 -27 55 -5 4 -7 18 -4 32 5 25 -25 56 -37 38 -3
-5 1 -12 7 -15 7 -3 3 -3 -10 0 -16 4 -28 0 -38 -13 -14 -17 -15 -17 -12 1 2
10 12 24 23 30 47 26 59 70 23 80 -21 6 -21 7 -5 17 21 12 22 38 2 45 -9 4
-15 19 -15 35 0 22 -6 32 -23 38 -13 5 -29 17 -37 26 -12 15 -12 19 5 31 25
18 35 18 35 -2 0 -18 28 -49 37 -41 3 3 -5 20 -18 38 -15 22 -19 34 -11 37 14
4 16 32 2 32 -5 0 -10 -7 -10 -15 0 -9 -9 -15 -24 -15 -13 0 -26 -6 -29 -12
-7 -20 -41 4 -45 31 -3 18 -9 22 -30 19 -17 -2 -27 -9 -26 -18 1 -9 -5 -21
-12 -28 -12 -11 -14 -5 -14 32 l0 46 45 -7 c31 -4 45 -2 45 6 0 15 27 14 33
-1 2 -7 8 -10 12 -6 4 4 0 15 -9 24 -13 12 -20 14 -29 5 -6 -6 -24 -11 -40
-11 -26 0 -29 3 -24 27 6 30 -1 53 -14 53 -5 0 -6 -18 -3 -40 4 -27 3 -40 -5
-40 -7 0 -11 26 -11 75 0 71 1 75 23 76 13 1 16 3 7 5 -18 5 -44 43 -36 52 3
3 20 5 36 5 17 0 30 4 30 9 0 6 -21 8 -46 6 l-47 -3 -4 44 c-3 30 1 48 11 60
9 10 13 21 9 24 -11 12 -23 8 -23 -8 0 -17 -16 -20 -25 -5 -3 6 0 13 8 16 21
8 28 54 20 139 -4 52 -10 75 -19 75 -7 0 -15 -3 -17 -7z m130 -665 c-3 -8 -6
-5 -6 6 -1 11 2 17 5 13 3 -3 4 -12 1 -19z m39 -27 c19 16 30 3 14 -16 -10
-12 -16 -13 -26 -4 -8 6 -14 17 -13 23 0 6 3 6 6 -2 4 -10 8 -10 19 -1z m-61
-21 c3 -5 -1 -10 -10 -10 -9 0 -13 5 -10 10 3 6 8 10 10 10 2 0 7 -4 10 -10z
m105 -30 c0 -5 -2 -10 -4 -10 -3 0 -8 5 -11 10 -3 6 -1 10 4 10 6 0 11 -4 11
-10z m-113 -52 c-3 -7 -5 -2 -5 12 0 14 2 19 5 13 2 -7 2 -19 0 -25z m147 23
c4 -1 6 -8 2 -16 -3 -9 0 -15 9 -15 16 0 20 -16 6 -24 -5 -3 -11 1 -15 9 -3 9
-12 12 -23 9 -14 -4 -15 -4 -4 4 18 13 -3 25 -29 17 -23 -7 -48 4 -32 14 8 5
42 6 86 2z m-104 -73 c-3 -60 -2 -64 12 -50 7 7 18 12 25 12 19 0 16 -20 -4
-27 -10 -4 -21 -11 -24 -16 -12 -17 -29 3 -29 34 0 35 -6 36 -31 7 l-18 -23 2
44 c2 25 8 46 15 49 7 2 12 -3 12 -12 0 -9 5 -16 11 -16 6 0 9 9 6 20 -3 13 0
20 10 20 11 0 14 -11 13 -42z m45 31 c11 -17 2 -18 -19 -3 -17 12 -17 14 -4
14 9 0 20 -5 23 -11z m-141 -42 c1 -15 -2 -27 -6 -27 -4 0 -8 3 -8 8 0 4 -3
18 -7 31 -4 17 -2 22 7 19 7 -2 14 -16 14 -31z m216 4 c0 -5 -7 -11 -15 -15
-15 -5 -20 5 -8 17 9 10 23 9 23 -2z m-34 -58 c-10 -10 -19 5 -10 18 6 11 8
11 12 0 2 -7 1 -15 -2 -18z m-151 -22 c3 -5 1 -12 -5 -16 -5 -3 -10 1 -10 9 0
18 6 21 15 7z m140 -11 c14 -16 15 -20 4 -20 -8 0 -20 5 -26 11 -16 16 -43
-12 -43 -43 0 -18 -2 -20 -10 -8 -17 26 -11 48 18 63 36 20 36 20 57 -3z m675
-65 c0 -8 -4 -16 -9 -19 -12 -8 -34 21 -27 33 9 14 36 2 36 -14z m-660 -20 c0
-24 5 -35 15 -35 8 0 15 -4 15 -10 0 -18 -29 -11 -42 10 -7 11 -24 20 -38 20
l-25 1 28 24 c38 33 47 31 47 -10z m84 10 c18 -28 18 -29 -18 -15 -17 6 -24
14 -20 25 9 21 19 19 38 -10z m-49 -15 c3 -5 15 -10 26 -10 10 0 19 -4 19 -10
0 -5 -4 -10 -8 -10 -15 0 -62 25 -62 33 0 10 18 9 25 -3z m1082 -47 c-3 -10
-5 -2 -5 17 0 19 2 27 5 18 2 -10 2 -26 0 -35z m-1159 0 c5 -16 13 -36 17 -46
7 -17 6 -18 -13 -6 -35 22 -51 79 -22 79 4 0 13 -12 18 -27z m-88 -8 c0 -2 -7
-5 -15 -9 -9 -3 -15 0 -15 9 0 9 6 12 15 9 8 -4 15 -7 15 -9z m493 -26 c-5
-41 -13 -67 -26 -81 -6 -8 -17 -23 -23 -33 -6 -11 -15 -20 -20 -20 -16 0 -14
39 1 60 13 17 17 18 25 5 7 -11 10 -8 15 12 11 42 3 63 -23 60 -14 -2 -22 2
-22 12 0 19 18 25 50 16 19 -5 24 -13 23 -31z m-447 4 c-8 -8 -36 5 -36 17 0
7 6 7 21 0 11 -7 18 -14 15 -17z m292 -30 c-2 -10 -13 -19 -26 -21 -22 -3 -32
-22 -11 -22 6 0 17 -7 25 -15 14 -13 13 -15 -3 -15 -20 1 -38 13 -68 48 l-19
23 25 -6 c19 -5 28 -2 32 9 9 23 49 21 45 -1z m104 5 c-6 -7 -27 -22 -47 -32
-27 -15 -38 -17 -47 -8 -9 9 -5 12 16 12 19 0 29 6 33 20 4 13 14 20 30 20 19
0 23 -3 15 -12z m148 -28 c0 -34 3 -40 21 -40 11 0 18 -4 15 -9 -3 -4 -17 -6
-31 -3 -22 4 -25 9 -25 48 0 24 5 44 10 44 6 0 10 -18 10 -40z m-570 20 c0 -5
-4 -10 -9 -10 -5 0 -17 -3 -27 -7 -16 -6 -17 -5 -4 10 17 18 40 22 40 7z m19
-41 c-17 -11 -39 -12 -39 -1 0 11 44 28 49 18 2 -4 -3 -12 -10 -17z m131 4 c2
-2 -6 -6 -19 -10 -17 -4 -19 -8 -9 -14 10 -7 10 -9 1 -9 -7 0 -13 -7 -13 -15
0 -8 5 -15 10 -15 6 0 10 -4 10 -10 0 -16 -17 -11 -25 8 -4 9 -9 32 -11 50 -4
31 -3 32 23 26 16 -4 30 -9 33 -11z m-93 -27 c-18 -27 -23 -30 -25 -15 -7 40
-24 18 -20 -26 2 -25 -1 -45 -5 -45 -4 0 -7 21 -5 48 3 43 5 47 27 44 17 -1
22 2 17 13 -4 10 1 15 14 15 18 0 18 -1 -3 -34z m-102 14 c3 -5 1 -10 -4 -10
-6 0 -11 5 -11 10 0 6 2 10 4 10 3 0 8 -4 11 -10z m559 -6 c3 -8 2 -12 -4 -9
-6 3 -10 10 -10 16 0 14 7 11 14 -7z m133 0 c-3 -3 -12 -4 -19 -1 -8 3 -5 6 6
6 11 1 17 -2 13 -5z m-437 -42 c0 -38 -1 -39 -37 -39 -21 0 -29 2 -18 4 25 6
35 21 35 51 0 12 5 22 10 22 6 0 10 -17 10 -38z m60 0 l0 -38 40 3 c22 1 40
-2 40 -8 0 -5 10 -9 22 -9 17 0 19 -3 10 -12 -9 -9 -20 -8 -48 5 -19 10 -33
13 -30 8 4 -5 -4 -17 -16 -25 -17 -12 -24 -13 -30 -3 -11 18 -10 117 2 117 6
0 10 -17 10 -38z m90 19 c0 -21 -17 -37 -28 -26 -3 3 0 10 8 16 13 8 13 10 0
19 -13 8 -12 10 3 10 10 0 17 -8 17 -19z m126 -57 c-3 -8 -11 -14 -18 -13 -10
0 -10 2 0 6 6 2 13 23 14 46 1 39 2 39 5 9 3 -19 2 -40 -1 -48z m-321 46 c-3
-5 -10 -10 -16 -10 -5 0 -9 5 -9 10 0 6 7 10 16 10 8 0 12 -4 9 -10z m485 -6
c0 -17 -22 -14 -28 4 -2 7 3 12 12 12 9 0 16 -7 16 -16z m-330 -4 c0 -5 -9
-10 -20 -10 -11 0 -20 5 -20 10 0 6 9 10 20 10 11 0 20 -4 20 -10z m260 0 c0
-5 -4 -10 -9 -10 -6 0 -13 5 -16 10 -3 6 1 10 9 10 9 0 16 -4 16 -10z m132
-30 c6 0 6 -6 -2 -15 -14 -17 -40 -20 -40 -5 0 6 8 10 18 10 15 1 15 2 -3 16
-17 13 -18 16 -5 24 11 7 16 5 18 -10 2 -11 8 -20 14 -20z m-112 1 c0 -14 -5
-18 -20 -14 -19 5 -20 6 -3 19 23 17 23 17 23 -5z m-520 -1 c0 -5 -4 -10 -10
-10 -5 0 -10 5 -10 10 0 6 5 10 10 10 6 0 10 -4 10 -10z m460 -6 c0 -2 -7 -4
-15 -4 -8 0 -15 4 -15 10 0 5 7 7 15 4 8 -4 15 -8 15 -10z m-374 -40 c-4 -9
-1 -23 5 -30 9 -11 5 -14 -21 -14 -26 0 -30 3 -21 14 6 7 9 21 5 30 -5 12 0
16 16 16 16 0 21 -4 16 -16z m267 -3 c-3 -13 -10 -18 -20 -14 -14 5 -13 8 3
20 23 17 23 17 17 -6z m218 -19 c-13 -4 -41 16 -41 29 0 5 12 2 26 -8 15 -9
21 -19 15 -21z m-293 7 c7 -12 10 -24 6 -27 -4 -4 -9 -1 -11 6 -3 6 -11 12
-19 12 -15 0 -19 12 -7 23 11 11 17 8 31 -14z m117 1 c3 -5 1 -10 -4 -10 -6 0
-11 5 -11 10 0 6 2 10 4 10 3 0 8 -4 11 -10z m42 -22 c-3 -8 -6 -5 -6 6 -1 11
2 17 5 13 3 -3 4 -12 1 -19z m233 -4 c0 -20 4 -25 22 -22 11 2 23 -3 26 -11 6
-17 -38 -5 -54 15 -13 16 -34 19 -34 4 0 -5 -8 -10 -17 -10 -14 0 -11 6 12 25
38 31 45 31 45 -1z m80 11 c0 -8 -7 -15 -15 -15 -9 0 -12 6 -9 15 4 8 10 15
15 15 5 0 9 -7 9 -15z m-533 -11 c-3 -3 -12 -4 -19 -1 -8 3 -5 6 6 6 11 1 17
-2 13 -5z m163 -14 c0 -5 -13 -8 -30 -8 -33 1 -41 14 -12 20 21 5 42 -1 42
-12z m-240 6 c0 -3 -4 -8 -10 -11 -5 -3 -10 -1 -10 4 0 6 5 11 10 11 6 0 10
-2 10 -4z m27 -47 c-10 -13 -17 -16 -22 -10 -3 6 1 14 10 17 10 4 14 14 10 28
-5 19 -5 19 5 3 8 -13 8 -22 -3 -38z m103 30 c0 -5 -9 -9 -20 -9 -11 0 -20 -4
-20 -10 0 -5 -9 -10 -20 -10 -11 0 -20 5 -20 10 0 6 9 10 19 10 10 0 21 7 25
15 5 15 36 10 36 -6z m-310 -29 c0 -13 -1 -13 -10 0 -5 8 -10 22 -10 30 0 13
1 13 10 0 5 -8 10 -22 10 -30z m610 30 c0 -5 -7 -10 -15 -10 -8 0 -15 5 -15
10 0 6 7 10 15 10 8 0 15 -4 15 -10z m-260 -16 c0 -17 -22 -14 -28 4 -2 7 3
12 12 12 9 0 16 -7 16 -16z m505 -18 c-12 -8 -15 -18 -10 -26 6 -10 4 -12 -9
-7 -10 4 -21 7 -26 7 -19 0 4 40 29 48 31 11 41 -3 16 -22z m-805 14 c0 -5 -2
-10 -4 -10 -3 0 -8 5 -11 10 -3 6 -1 10 4 10 6 0 11 -4 11 -10z m76 -32 c9
-30 -1 -32 -30 -7 -18 16 -22 25 -14 30 16 10 36 0 44 -23z m524 8 c0 -2 -11
-3 -25 -3 -24 0 -31 7 -19 20 6 6 44 -9 44 -17z m490 14 c0 -5 -5 -10 -11 -10
-5 0 -7 5 -4 10 3 6 8 10 11 10 2 0 4 -4 4 -10z m-445 -10 c3 -5 -1 -10 -9
-10 -9 0 -16 5 -16 10 0 6 4 10 9 10 6 0 13 -4 16 -10z m-508 -40 c7 0 13 -4
13 -10 0 -5 -5 -10 -11 -10 -17 0 -39 27 -38 47 0 15 2 14 11 -4 6 -13 17 -23
25 -23z m138 30 c7 -12 -2 -12 -30 0 -19 8 -19 9 2 9 12 1 25 -3 28 -9z m185
0 c0 -5 -4 -10 -10 -10 -5 0 -10 5 -10 10 0 6 5 10 10 10 6 0 10 -4 10 -10z
m243 -7 c-7 -2 -21 -2 -30 0 -10 3 -4 5 12 5 17 0 24 -2 18 -5z m-509 -18 c-4
-8 -7 -15 -9 -15 -2 0 -5 7 -9 15 -3 9 0 15 9 15 9 0 12 -6 9 -15z m391 5 c-3
-5 -25 -9 -48 -9 l-42 2 40 7 c22 4 44 8 48 9 5 0 5 -3 2 -9z m-95 -20 c0 -5
-4 -10 -10 -10 -5 0 -10 5 -10 10 0 6 5 10 10 10 6 0 10 -4 10 -10z m-310 -20
c0 -5 -4 -10 -10 -10 -5 0 -10 5 -10 10 0 6 5 10 10 10 6 0 10 -4 10 -10z m66
-30 c1 -19 0 -28 -3 -20 -4 8 -12 21 -20 28 -7 8 -10 18 -7 23 11 19 27 3 30
-31z m344 30 c0 -5 -6 -10 -14 -10 -8 0 -18 5 -21 10 -3 6 3 10 14 10 12 0 21
-4 21 -10z m-460 -20 c12 -8 11 -10 -7 -10 -13 0 -23 5 -23 10 0 13 11 13 30
0z m195 -9 c6 -11 -1 -16 -37 -25 -17 -4 -28 -2 -28 4 0 5 7 10 15 10 8 0 15
5 15 10 0 13 27 13 35 1z m335 -11 c0 -18 -3 -19 -20 -8 -18 12 -19 13 -2 20
9 3 18 7 20 7 1 1 2 -8 2 -19z m68 11 c11 -7 11 -9 -2 -14 -19 -7 -46 1 -46
14 0 11 31 11 48 0z m-748 -11 c0 -5 -4 -10 -10 -10 -5 0 -10 5 -10 10 0 6 5
10 10 10 6 0 10 -4 10 -10z m200 -12 c0 -16 -3 -19 -11 -11 -6 6 -8 16 -5 22
11 17 16 13 16 -11z m-115 -18 c4 -6 -5 -10 -19 -10 -14 0 -26 5 -26 10 0 6 9
10 19 10 11 0 23 -4 26 -10z m675 -5 c0 -8 -4 -15 -10 -15 -5 0 -10 7 -10 15
0 8 5 15 10 15 6 0 10 -7 10 -15z m-240 -5 c0 -5 -2 -10 -4 -10 -3 0 -8 5 -11
10 -3 6 -1 10 4 10 6 0 11 -4 11 -10z m180 0 c0 -5 -4 -10 -10 -10 -5 0 -10 5
-10 10 0 6 5 10 10 10 6 0 10 -4 10 -10z m220 0 c0 -5 -2 -10 -4 -10 -3 0 -8
5 -11 10 -3 6 -1 10 4 10 6 0 11 -4 11 -10z m-800 -10 c0 -5 -2 -10 -4 -10 -3
0 -8 5 -11 10 -3 6 -1 10 4 10 6 0 11 -4 11 -10z m89 -14 c-2 -2 -15 -7 -29
-11 l-25 -8 25 21 c14 11 27 16 29 11 1 -6 1 -12 0 -13z m91 14 c0 -5 -4 -10
-10 -10 -5 0 -10 5 -10 10 0 6 5 10 10 10 6 0 10 -4 10 -10z m367 4 c-3 -3
-12 -4 -19 -1 -8 3 -5 6 6 6 11 1 17 -2 13 -5z m-411 -41 c-4 -4 -11 -1 -16 7
-16 25 -11 35 7 17 9 -9 13 -20 9 -24z m-190 0 c-10 -10 -19 5 -10 18 6 11 8
11 12 0 2 -7 1 -15 -2 -18z m674 7 c0 -5 -4 -10 -9 -10 -6 0 -13 5 -16 10 -3
6 1 10 9 10 9 0 16 -4 16 -10z m140 0 c0 -5 -4 -10 -9 -10 -6 0 -13 5 -16 10
-3 6 1 10 9 10 9 0 16 -4 16 -10z m-765 -10 c3 -5 1 -10 -4 -10 -6 0 -11 5
-11 10 0 6 2 10 4 10 3 0 8 -4 11 -10z m345 0 c0 -5 -4 -10 -10 -10 -5 0 -10
5 -10 10 0 6 5 10 10 10 6 0 10 -4 10 -10z m-110 -10 c27 -17 1 -23 -32 -7
-31 16 -31 17 -8 17 14 0 32 -4 40 -10z m654 4 c32 -12 15 -19 -41 -17 -32 1
-59 2 -61 3 -2 0 0 5 3 10 7 11 74 14 99 4z m-957 -46 c-3 -8 -6 -5 -6 6 -1
11 2 17 5 13 3 -3 4 -12 1 -19z m179 -8 c8 0 13 -4 10 -9 -3 -5 -14 -7 -25 -4
-14 3 -17 11 -13 26 5 18 7 19 10 5 2 -10 10 -18 18 -18z m185 17 c-6 -8 -8
-17 -4 -20 3 -4 2 -7 -4 -7 -17 0 -22 12 -10 26 16 17 33 18 18 1z m552 -7
c23 0 36 -4 32 -10 -10 -16 5 -52 19 -47 7 3 19 1 26 -3 8 -5 22 -4 32 1 13 7
18 6 18 -4 0 -22 -8 -25 -50 -17 -36 7 -57 -3 -28 -12 9 -3 9 -6 1 -11 -7 -4
-17 5 -25 23 -7 16 -16 30 -20 30 -5 0 -8 9 -8 20 0 11 -7 20 -15 20 -8 0 -15
-5 -15 -12 0 -9 -3 -9 -12 0 -7 7 -20 12 -31 12 -10 0 -15 5 -11 11 3 6 16 8
28 5 11 -3 38 -6 59 -6z m-150 -17 c-7 -2 -19 -2 -25 0 -7 3 -2 5 12 5 14 0
19 -2 13 -5z m-243 -33 c0 -16 -4 -30 -10 -30 -5 0 -10 14 -10 30 0 17 5 30
10 30 6 0 10 -13 10 -30z m181 -5 c5 4 9 1 9 -4 0 -6 -5 -11 -11 -11 -21 0
-49 21 -49 37 0 14 4 13 21 -5 11 -12 24 -20 30 -17z m-471 15 c0 -5 -2 -10
-4 -10 -3 0 -8 5 -11 10 -3 6 -1 10 4 10 6 0 11 -4 11 -10z m375 -10 c-3 -5
-10 -10 -16 -10 -5 0 -9 5 -9 10 0 6 7 10 16 10 8 0 12 -4 9 -10z m185 -6 c0
-8 -5 -12 -10 -9 -6 4 -8 11 -5 16 9 14 15 11 15 -7z m-403 -16 c-3 -8 -6 -5
-6 6 -1 11 2 17 5 13 3 -3 4 -12 1 -19z m440 -4 c-9 -9 -28 6 -21 18 4 6 10 6
17 -1 6 -6 8 -13 4 -17z m-892 -2 c-3 -3 -11 0 -18 7 -9 10 -8 11 6 5 10 -3
15 -9 12 -12z m975 3 c0 -15 -46 -32 -57 -21 -4 3 3 6 15 6 13 0 22 6 22 15 0
8 5 15 10 15 6 0 10 -7 10 -15z m153 -12 c-7 -2 -13 -20 -13 -39 0 -19 -5 -34
-11 -34 -7 0 -8 12 -4 33 9 40 13 47 28 46 9 0 9 -2 0 -6z m-750 -18 c-3 -9
-8 -14 -10 -11 -3 3 -2 9 2 15 9 16 15 13 8 -4z m471 -10 c-33 -28 -54 -32
-54 -10 0 9 9 15 24 15 14 0 28 5 31 10 3 6 11 10 17 10 6 0 -2 -11 -18 -25z
m-74 -5 c0 -5 -7 -10 -16 -10 -8 0 -12 5 -9 10 3 6 10 10 16 10 5 0 9 -4 9
-10z m230 -1 c0 -5 4 -8 9 -4 15 8 25 -15 12 -28 -8 -8 -11 -8 -11 1 0 7 -10
12 -22 11 -13 0 -17 -3 -10 -6 21 -8 14 -32 -8 -26 -11 3 -20 9 -20 14 0 5 -8
9 -17 9 -10 0 -27 8 -38 16 -19 15 -18 15 16 9 23 -4 39 -3 43 4 9 14 46 14
46 0z m85 2 c3 -5 0 -13 -5 -16 -8 -5 -6 -12 4 -24 10 -11 12 -21 6 -31 -8
-13 -10 -12 -10 3 0 11 -8 17 -21 17 -13 0 -19 5 -15 13 3 6 9 20 12 30 7 19
20 22 29 8z m-735 -31 c0 -5 -2 -10 -4 -10 -3 0 -8 5 -11 10 -3 6 -1 10 4 10
6 0 11 -4 11 -10z m555 -19 c9 -15 -14 -24 -29 -12 -7 6 -22 9 -32 5 -16 -5
-16 -4 -4 5 18 13 57 14 65 2z m45 -27 c0 -8 -4 -14 -10 -14 -5 0 -10 9 -10
21 0 11 5 17 10 14 6 -3 10 -13 10 -21z m-30 -15 c0 -5 -7 -9 -15 -9 -15 0
-20 12 -9 23 8 8 24 -1 24 -14z m130 1 c0 -5 -4 -10 -10 -10 -5 0 -10 5 -10
10 0 6 5 10 10 10 6 0 10 -4 10 -10z m-180 -10 c0 -5 -11 -10 -25 -10 -14 0
-25 5 -25 10 0 6 11 10 25 10 14 0 25 -4 25 -10z m221 -23 c-8 -8 -11 -7 -11
4 0 20 13 34 18 19 3 -7 -1 -17 -7 -23z m-751 2 c0 -5 -4 -9 -10 -9 -5 0 -10
7 -10 16 0 8 5 12 10 9 6 -3 10 -10 10 -16z m670 11 c0 -5 -2 -10 -4 -10 -3 0
-8 5 -11 10 -3 6 -1 10 4 10 6 0 11 -4 11 -10z m-52 -33 c-7 -14 -13 -17 -16
-9 -6 19 6 44 18 37 7 -4 6 -14 -2 -28z m-64 17 c18 -7 12 -24 -10 -24 -8 0
-14 7 -14 15 0 17 2 18 24 9z m124 -11 c-10 -2 -18 -9 -18 -14 0 -5 -4 -9 -10
-9 -5 0 -10 7 -10 15 0 10 9 15 28 14 16 -1 20 -3 10 -6z m72 -33 c0 -5 -4
-10 -10 -10 -5 0 -10 5 -10 10 0 6 5 10 10 10 6 0 10 -4 10 -10z m47 -12 c-3
-8 -6 -5 -6 6 -1 11 2 17 5 13 3 -3 4 -12 1 -19z m-207 -18 c0 -13 -5 -18 -14
-14 -8 3 -12 12 -9 20 8 21 23 17 23 -6z m30 -1 c0 -5 -4 -9 -10 -9 -5 0 -10
7 -10 16 0 8 5 12 10 9 6 -3 10 -10 10 -16z m-110 -6 c0 -13 -9 -18 -30 -19
-17 -1 -30 3 -30 7 0 5 11 9 25 9 14 0 25 5 25 10 0 6 2 10 5 10 3 0 5 -8 5
-17z m-250 -3 c0 -5 -5 -10 -11 -10 -5 0 -7 5 -4 10 3 6 8 10 11 10 2 0 4 -4
4 -10z m290 -10 c0 -5 -4 -10 -10 -10 -5 0 -10 5 -10 10 0 6 5 10 10 10 6 0
10 -4 10 -10z m188 -18 c2 -12 7 -22 12 -22 4 0 7 -34 6 -75 0 -41 2 -75 7
-75 10 0 8 -82 -3 -100 -7 -11 -10 -7 -10 18 0 29 -3 32 -32 33 -18 0 -51 4
-73 9 -32 8 -24 8 38 5 47 -3 77 -1 77 5 0 6 -9 10 -20 10 -21 0 -27 15 -10
25 5 3 7 12 3 20 -3 9 0 22 6 29 10 12 8 13 -8 9 -15 -4 -21 -1 -21 11 0 9 8
16 20 16 24 0 26 15 5 28 -21 11 -34 87 -14 80 8 -2 15 -14 17 -26z m39 -24
c-2 -13 -4 -5 -4 17 -1 22 1 32 4 23 2 -10 2 -28 0 -40z m-129 36 c12 -4 22
-12 22 -19 0 -9 -9 -10 -39 -2 -22 6 -38 14 -35 19 6 9 21 10 52 2z m-665 -11
c-7 -2 -19 -2 -25 0 -7 3 -2 5 12 5 14 0 19 -2 13 -5z m552 -23 c7 0 16 6 19
13 3 9 9 7 19 -5 8 -10 17 -18 20 -18 13 0 55 -50 47 -55 -13 -8 -46 11 -54
31 -4 11 -13 14 -28 11 -12 -4 -28 -1 -35 5 -9 7 -13 7 -13 -1 0 -6 -7 -11
-16 -11 -10 0 -14 7 -12 18 2 9 10 16 16 15 7 -2 12 3 13 10 0 10 2 10 6 0 2
-7 11 -13 18 -13z m-645 -9 c0 -6 -4 -13 -10 -16 -5 -3 -10 1 -10 9 0 9 5 16
10 16 6 0 10 -4 10 -9z m790 -11 c0 -5 -5 -10 -11 -10 -5 0 -7 5 -4 10 3 6 8
10 11 10 2 0 4 -4 4 -10z m-823 -6 c-3 -3 -12 -4 -19 -1 -8 3 -5 6 6 6 11 1
17 -2 13 -5z m834 -28 c-7 -8 -10 -20 -6 -26 3 -5 1 -10 -4 -10 -15 0 -14 47
2 53 18 6 21 -1 8 -17z m96 -43 c-3 -10 -5 -2 -5 17 0 19 2 27 5 18 2 -10 2
-26 0 -35z m-502 17 c3 -5 1 -10 -4 -10 -6 0 -11 5 -11 10 0 6 2 10 4 10 3 0
8 -4 11 -10z m261 -22 c18 -20 18 -21 1 -15 -10 4 -23 7 -28 7 -5 0 -9 7 -9
15 0 21 14 19 36 -7z m149 -28 c0 -7 -6 -15 -12 -17 -8 -3 -13 4 -13 17 0 13
5 20 13 18 6 -3 12 -11 12 -18z m-805 -50 c0 -5 -7 -10 -15 -10 -8 0 -15 5
-15 10 0 6 7 10 15 10 8 0 15 -4 15 -10z m595 -10 c-3 -5 -14 -10 -23 -10 -15
0 -15 2 -2 10 20 13 33 13 25 0z m-75 -10 c0 -5 -5 -10 -11 -10 -5 0 -7 5 -4
10 3 6 8 10 11 10 2 0 4 -4 4 -10z m130 -4 c0 -24 -18 -28 -30 -6 -9 17 -8 20
10 20 11 0 20 -6 20 -14z m32 -48 c-9 -20 -11 -18 -11 22 0 40 2 42 11 23 8
-17 8 -29 0 -45z m142 16 c18 -12 17 -13 -9 -20 -18 -5 -30 -2 -36 7 -7 11 -9
10 -9 -3 0 -10 8 -18 18 -19 14 0 14 -2 -3 -8 -33 -14 -46 5 -27 38 17 30 28
30 66 5z m-429 -24 c3 -5 1 -10 -4 -10 -6 0 -11 5 -11 10 0 6 2 10 4 10 3 0 8
-4 11 -10z m190 -18 c-3 -3 -11 0 -18 7 -9 10 -8 11 6 5 10 -3 15 -9 12 -12z
m40 8 c3 -6 -1 -7 -9 -4 -18 7 -21 14 -7 14 6 0 13 -4 16 -10z m-258 -6 c-3
-3 -12 -4 -19 -1 -8 3 -5 6 6 6 11 1 17 -2 13 -5z m103 -14 c0 -11 -2 -20 -4
-20 -2 0 -6 9 -9 20 -3 11 -1 20 4 20 5 0 9 -9 9 -20z m409 -17 c-1 -35 -2
-36 -8 -9 -6 28 -6 28 -24 8 -18 -20 -18 -21 2 -32 18 -9 20 -17 15 -49 -4
-24 -2 -41 5 -45 6 -4 11 -15 11 -24 -1 -16 -1 -16 -11 1 -8 14 -14 15 -30 6
-16 -8 -18 -13 -8 -25 6 -8 8 -14 3 -14 -5 0 -19 -3 -31 -6 -28 -8 -31 13 -6
31 16 12 16 14 0 38 -10 15 -13 28 -7 32 5 3 6 13 3 22 -4 11 -3 14 5 9 7 -4
12 -20 12 -37 0 -22 5 -29 20 -29 21 0 27 15 10 25 -15 9 -12 25 5 25 26 0 16
18 -15 29 -37 13 -38 33 -2 60 40 30 52 27 51 -16z m-179 17 c0 -5 -4 -10 -10
-10 -5 0 -10 5 -10 10 0 6 5 10 10 10 6 0 10 -4 10 -10z m55 -50 c3 -5 1 -10
-4 -10 -6 0 -11 5 -11 10 0 6 2 10 4 10 3 0 8 -4 11 -10z m-285 -55 c7 -9 8
-15 2 -15 -5 0 -12 7 -16 15 -3 8 -4 15 -2 15 2 0 9 -7 16 -15z m252 -10 c0
-5 -5 -11 -11 -13 -6 -2 -11 4 -11 13 0 9 5 15 11 13 6 -2 11 -8 11 -13z m-50
-37 c-6 -6 -16 -7 -22 -3 -9 6 -9 9 1 16 17 10 34 0 21 -13z m86 6 c32 -9 27
-21 -8 -22 -20 0 -30 4 -30 14 0 16 5 17 38 8z m7 -54 c-3 -5 -11 -10 -16 -10
-6 0 -7 5 -4 10 3 6 11 10 16 10 6 0 7 -4 4 -10z m-1038 -26 c-3 -3 -12 -4
-19 -1 -8 3 -5 6 6 6 11 1 17 -2 13 -5z m950 0 c-3 -3 -12 -4 -19 -1 -8 3 -5
6 6 6 11 1 17 -2 13 -5z m223 -40 c0 -2 -7 -4 -15 -4 -8 0 -15 4 -15 10 0 5 7
7 15 4 8 -4 15 -8 15 -10z m-1060 2 c0 -11 -19 -15 -25 -6 -3 5 1 10 9 10 9 0
16 -2 16 -4z m862 -49 c-2 -9 3 -17 9 -17 13 0 3 -14 -12 -16 -5 -1 -13 -2
-19 -3 -5 0 -10 -8 -10 -16 0 -8 -7 -15 -16 -15 -8 0 -12 5 -9 10 3 6 -1 13
-9 16 -9 3 -16 12 -16 20 0 12 4 12 20 2 17 -11 23 -9 42 11 l23 24 -23 -6
c-13 -3 -20 -1 -16 4 10 16 39 5 36 -14z m79 8 c-18 -8 -38 -15 -45 -14 -15 1
46 28 64 28 8 0 0 -6 -19 -14z m92 -15 c-17 -20 -53 -16 -53 6 0 17 12 18 28
2 9 -9 12 -8 12 5 0 10 5 14 14 11 12 -5 12 -8 -1 -24z m-318 1 c3 -5 1 -12
-5 -16 -5 -3 -10 1 -10 9 0 18 6 21 15 7z m-595 -21 c8 -5 11 -10 5 -10 -5 0
-17 5 -25 10 -8 5 -10 10 -5 10 6 0 17 -5 25 -10z m820 -1 c0 -6 7 -9 15 -5
12 4 13 2 2 -14 -14 -23 -29 -27 -21 -5 4 8 1 15 -5 15 -6 0 -11 5 -11 10 0 6
5 10 10 10 6 0 10 -5 10 -11z m-180 -19 c0 -5 -2 -10 -4 -10 -3 0 -8 5 -11 10
-3 6 -1 10 4 10 6 0 11 -4 11 -10z m137 -15 c0 -8 -4 -12 -9 -9 -5 3 -6 10 -3
15 9 13 12 11 12 -6z m113 -14 c0 -21 -10 -32 -22 -25 -5 3 -4 12 3 20 9 11 9
14 0 14 -7 0 -9 5 -6 10 9 15 25 2 25 -19z m-120 -41 c0 -5 -4 -10 -10 -10 -5
0 -10 5 -10 10 0 6 5 10 10 10 6 0 10 -4 10 -10z m77 -12 c-3 -8 -6 -5 -6 6
-1 11 2 17 5 13 3 -3 4 -12 1 -19z m-167 -14 c0 -2 -7 -4 -15 -4 -8 0 -15 4
-15 10 0 5 7 7 15 4 8 -4 15 -8 15 -10z m130 6 c0 -5 9 -10 21 -10 11 0 17 -4
14 -11 -4 -5 -12 -8 -18 -6 -7 2 -20 -2 -29 -11 -19 -16 -21 -11 -12 26 6 22
24 31 24 12z m90 -20 c0 -5 -2 -10 -4 -10 -3 0 -8 5 -11 10 -3 6 -1 10 4 10 6
0 11 -4 11 -10z m-66 -39 c17 -6 17 -8 3 -14 -8 -3 -21 1 -27 9 -13 15 -6 17
24 5z m72 -27 c-4 -9 -9 -15 -11 -12 -3 3 -3 13 1 22 4 9 9 15 11 12 3 -3 3
-13 -1 -22z m-339 -20 c-3 -3 -12 -4 -19 -1 -8 3 -5 6 6 6 11 1 17 -2 13 -5z
m283 -4 c0 -5 -4 -10 -10 -10 -5 0 -10 5 -10 10 0 6 5 10 10 10 6 0 10 -4 10
-10z m-315 -30 c8 -13 -5 -13 -25 0 -13 8 -13 10 2 10 9 0 20 -4 23 -10z m55
-4 c0 -11 -19 -15 -25 -6 -3 5 1 10 9 10 9 0 16 -2 16 -4z m302 -16 c22 -20
15 -26 -16 -14 -9 3 -16 12 -16 20 0 19 7 18 32 -6z m-310 -42 c-7 -7 -12 -8
-12 -2 0 14 12 26 19 19 2 -3 -1 -11 -7 -17z m252 -23 c-4 -9 0 -15 10 -15 18
0 22 -25 5 -35 -14 -9 -18 -4 -25 33 -4 20 -3 32 4 32 6 0 9 -7 6 -15z m40
-86 c-6 -11 -24 -2 -24 11 0 5 7 7 15 4 8 -4 12 -10 9 -15z"/>
<path d="M9220 11686 c0 -2 9 -6 20 -9 11 -3 18 -1 14 4 -5 9 -34 13 -34 5z"/>
<path d="M9650 11686 c0 -10 28 -13 41 -5 10 6 7 9 -13 9 -16 0 -28 -2 -28 -4z"/>
<path d="M6396 11667 c3 -10 9 -15 12 -12 3 3 0 11 -7 18 -10 9 -11 8 -5 -6z"/>
<path d="M9305 11670 c3 -5 10 -10 16 -10 5 0 9 5 9 10 0 6 -7 10 -16 10 -8 0
-12 -4 -9 -10z"/>
<path d="M7480 11661 c0 -6 4 -12 9 -15 13 -8 4 -36 -20 -66 -20 -24 -21 -24
-16 -2 3 12 1 22 -4 22 -5 0 -9 -6 -9 -14 0 -12 -32 -40 -65 -56 -5 -3 -43
-26 -82 -52 -51 -33 -73 -54 -73 -68 0 -46 112 -11 188 60 45 42 103 150 95
178 -5 22 -23 31 -23 13z"/>
<path d="M9520 11644 c0 -8 5 -12 10 -9 6 4 8 11 5 16 -9 14 -15 11 -15 -7z"/>
<path d="M9730 11650 c0 -5 5 -10 11 -10 5 0 7 5 4 10 -3 6 -8 10 -11 10 -2 0
-4 -4 -4 -10z"/>
<path d="M10345 11651 c-3 -5 -1 -12 5 -16 5 -3 10 1 10 9 0 18 -6 21 -15 7z"/>
<path d="M6430 11640 c0 -5 5 -10 11 -10 5 0 7 5 4 10 -3 6 -8 10 -11 10 -2 0
-4 -4 -4 -10z"/>
<path d="M6358 11616 c-4 -17 -1 -23 9 -19 14 6 18 43 4 43 -5 0 -11 -11 -13
-24z"/>
<path d="M10075 11630 c-3 -5 -1 -10 4 -10 6 0 11 5 11 10 0 6 -2 10 -4 10 -3
0 -8 -4 -11 -10z"/>
<path d="M9595 11620 c3 -5 8 -10 11 -10 2 0 4 5 4 10 0 6 -5 10 -11 10 -5 0
-7 -4 -4 -10z"/>
<path d="M10310 11600 c8 -5 20 -10 25 -10 6 0 3 5 -5 10 -8 5 -19 10 -25 10
-5 0 -3 -5 5 -10z"/>
<path d="M10180 11589 c0 -5 5 -7 10 -4 6 3 10 8 10 11 0 2 -4 4 -10 4 -5 0
-10 -5 -10 -11z"/>
<path d="M10341 11561 c-8 -14 -11 -42 -8 -67 4 -36 1 -44 -17 -52 -21 -11
-21 -11 2 -11 22 -1 31 -24 12 -36 -11 -7 8 -55 22 -55 12 0 10 118 -3 142 -8
14 -7 28 1 48 16 38 8 63 -9 31z"/>
<path d="M6360 11545 c0 -14 5 -25 10 -25 6 0 10 11 10 25 0 14 -4 25 -10 25
-5 0 -10 -11 -10 -25z"/>
<path d="M5540 11510 c0 -5 5 -10 10 -10 6 0 10 5 10 10 0 6 -4 10 -10 10 -5
0 -10 -4 -10 -10z"/>
<path d="M6580 11506 c0 -9 5 -16 10 -16 6 0 10 4 10 9 0 6 -4 13 -10 16 -5 3
-10 -1 -10 -9z"/>
<path d="M9031 11494 c0 -11 3 -14 6 -6 3 7 2 16 -1 19 -3 4 -6 -2 -5 -13z"/>
<path d="M9878 11493 c12 -2 30 -2 40 0 9 3 -1 5 -23 4 -22 0 -30 -2 -17 -4z"/>
<path d="M9190 11481 c0 -5 9 -7 20 -4 11 3 20 7 20 9 0 2 -9 4 -20 4 -11 0
-20 -4 -20 -9z"/>
<path d="M9950 11470 c0 -5 5 -10 11 -10 5 0 7 5 4 10 -3 6 -8 10 -11 10 -2 0
-4 -4 -4 -10z"/>
<path d="M5621 11454 c-1 -6 8 -19 19 -29 18 -16 20 -16 20 -2 0 10 -6 17 -14
17 -8 0 -17 6 -19 13 -3 7 -6 7 -6 1z"/>
<path d="M9028 11444 c-5 -4 -8 -20 -8 -35 0 -33 10 -42 28 -23 7 8 8 14 3 14
-5 0 -11 12 -13 26 -2 14 -6 22 -10 18z"/>
<path d="M9970 11440 c-13 -9 -13 -10 0 -10 8 0 22 5 30 10 13 9 13 10 0 10
-8 0 -22 -5 -30 -10z"/>
<path d="M5596 11423 c-6 -14 -5 -15 5 -6 7 7 10 15 7 18 -3 3 -9 -2 -12 -12z"/>
<path d="M9190 11430 c0 -5 7 -7 15 -4 8 4 15 8 15 10 0 2 -7 4 -15 4 -8 0
-15 -4 -15 -10z"/>
<path d="M9735 11430 c-19 -8 -19 -9 3 -9 12 -1 22 4 22 9 0 6 -1 10 -2 9 -2
0 -12 -4 -23 -9z"/>
<path d="M9550 11410 c0 -5 7 -10 15 -10 8 0 15 5 15 10 0 6 -7 10 -15 10 -8
0 -15 -4 -15 -10z"/>
<path d="M9875 11399 c-4 -6 -4 -13 -1 -16 8 -8 36 5 36 17 0 13 -27 13 -35
-1z"/>
<path d="M10208 11403 c7 -3 16 -2 19 1 4 3 -2 6 -13 5 -11 0 -14 -3 -6 -6z"/>
<path d="M9680 11389 c0 -5 5 -7 10 -4 6 3 10 8 10 11 0 2 -4 4 -10 4 -5 0
-10 -5 -10 -11z"/>
<path d="M9910 11369 c0 -5 5 -7 10 -4 6 3 10 8 10 11 0 2 -4 4 -10 4 -5 0
-10 -5 -10 -11z"/>
<path d="M10140 11370 c-13 -8 -13 -10 2 -10 9 0 20 5 23 10 8 13 -5 13 -25 0z"/>
<path d="M9408 11363 c7 -3 16 -2 19 1 4 3 -2 6 -13 5 -11 0 -14 -3 -6 -6z"/>
<path d="M9533 11363 c9 -2 25 -2 35 0 9 3 1 5 -18 5 -19 0 -27 -2 -17 -5z"/>
<path d="M9965 11360 c4 -6 11 -8 16 -5 14 9 11 15 -7 15 -8 0 -12 -5 -9 -10z"/>
<path d="M5745 11351 c-15 -15 -6 -81 11 -81 20 0 22 12 10 53 -8 27 -14 35
-21 28z"/>
<path d="M9357 11339 c4 -13 8 -18 11 -10 2 7 -1 18 -6 23 -8 8 -9 4 -5 -13z"/>
<path d="M9926 11331 c-4 -5 -2 -12 3 -15 5 -4 12 -2 15 3 4 5 2 12 -3 15 -5
4 -12 2 -15 -3z"/>
<path d="M9970 11324 c0 -8 5 -12 10 -9 6 4 8 11 5 16 -9 14 -15 11 -15 -7z"/>
<path d="M6650 11310 c0 -5 5 -10 10 -10 6 0 10 5 10 10 0 6 -4 10 -10 10 -5
0 -10 -4 -10 -10z"/>
<path d="M9798 11306 c-42 -11 -48 -21 -17 -29 13 -4 28 2 41 15 25 25 22 26
-24 14z"/>
<path d="M6612 11298 c6 -18 28 -21 28 -4 0 9 -7 16 -16 16 -9 0 -14 -5 -12
-12z"/>
<path d="M9108 11303 c-21 -5 -24 -23 -4 -23 8 0 16 7 20 15 3 8 4 14 3 14 -1
-1 -10 -3 -19 -6z"/>
<path d="M9900 11280 l-25 -8 28 -1 c26 -1 30 -8 28 -41 -1 -26 58 -78 73 -63
12 13 5 21 -23 26 -23 5 -28 11 -29 34 0 69 -1 69 -52 53z"/>
<path d="M9977 11274 c6 -18 19 -18 26 -1 3 7 -3 13 -14 14 -12 1 -16 -3 -12
-13z"/>
<path d="M5950 11269 c0 -5 5 -7 10 -4 6 3 10 8 10 11 0 2 -4 4 -10 4 -5 0
-10 -5 -10 -11z"/>
<path d="M10125 11260 c3 -5 8 -10 11 -10 2 0 4 5 4 10 0 6 -5 10 -11 10 -5 0
-7 -4 -4 -10z"/>
<path d="M9090 11250 c0 -5 7 -10 15 -10 8 0 15 5 15 10 0 6 -7 10 -15 10 -8
0 -15 -4 -15 -10z"/>
<path d="M9688 11253 c6 -2 18 -2 25 0 6 3 1 5 -13 5 -14 0 -19 -2 -12 -5z"/>
<path d="M9824 11249 c-3 -6 -1 -16 5 -22 8 -8 11 -5 11 11 0 24 -5 28 -16 11z"/>
<path d="M9570 11240 c19 -13 30 -13 30 0 0 6 -10 10 -22 10 -19 0 -20 -2 -8
-10z"/>
<path d="M9240 11231 c0 -6 6 -11 14 -11 8 0 17 -6 20 -12 3 -7 5 -4 3 7 -2
20 -37 35 -37 16z"/>
<path d="M9506 11231 c-3 -5 1 -11 9 -14 9 -4 12 -1 8 9 -6 16 -10 17 -17 5z"/>
<path d="M9880 11230 c0 -5 9 -10 20 -10 11 0 20 5 20 10 0 6 -9 10 -20 10
-11 0 -20 -4 -20 -10z"/>
<path d="M9625 11220 c-6 -10 16 -40 30 -40 4 0 5 10 3 22 -3 24 -23 35 -33
18z"/>
<path d="M9380 11210 c0 -5 7 -10 16 -10 8 0 12 5 9 10 -3 6 -10 10 -16 10 -5
0 -9 -4 -9 -10z"/>
<path d="M9090 11175 c0 -26 4 -35 16 -35 13 0 15 7 10 30 -4 22 -2 29 6 24 7
-4 8 -3 4 4 -16 26 -36 12 -36 -23z"/>
<path d="M9590 11185 c14 -17 14 -17 -15 -33 -19 -11 -19 -11 -1 -12 25 0 48
31 34 47 -6 7 -15 13 -20 13 -6 0 -5 -7 2 -15z"/>
<path d="M9680 11186 c0 -9 5 -16 10 -16 6 0 10 4 10 9 0 6 -4 13 -10 16 -5 3
-10 -1 -10 -9z"/>
<path d="M9828 11193 c6 -2 12 -11 12 -18 0 -17 50 -29 63 -16 16 16 -1 27
-48 34 -22 3 -34 3 -27 0z"/>
<path d="M9295 11180 c-3 -5 1 -10 9 -10 9 0 16 5 16 10 0 6 -4 10 -9 10 -6 0
-13 -4 -16 -10z"/>
<path d="M9265 11170 c-3 -5 -1 -10 4 -10 6 0 11 5 11 10 0 6 -2 10 -4 10 -3
0 -8 -4 -11 -10z"/>
<path d="M9715 11170 c-6 -10 1 -15 39 -24 24 -6 26 -5 15 7 -20 19 -47 28
-54 17z"/>
<path d="M9390 11150 c0 -5 7 -10 15 -10 8 0 15 5 15 10 0 6 -7 10 -15 10 -8
0 -15 -4 -15 -10z"/>
<path d="M9665 11151 c-3 -5 -1 -12 5 -16 5 -3 10 1 10 9 0 18 -6 21 -15 7z"/>
<path d="M9828 11141 c7 -4 12 -12 11 -17 -5 -27 1 -36 16 -24 14 12 14 15 -1
31 -10 11 -22 19 -28 19 -6 0 -5 -4 2 -9z"/>
<path d="M9985 11140 c-3 -6 1 -13 10 -16 21 -9 26 -2 10 13 -9 8 -16 9 -20 3z"/>
<path d="M9620 11130 c0 -5 5 -10 10 -10 6 0 10 5 10 10 0 6 -4 10 -10 10 -5
0 -10 -4 -10 -10z"/>
<path d="M9690 11132 c0 -4 13 -13 28 -20 22 -9 36 -9 60 -1 30 10 44 29 22
29 -5 0 -10 -4 -10 -10 0 -10 -56 -8 -67 3 -9 9 -33 9 -33 -1z"/>
<path d="M9898 11123 c6 -2 18 -2 25 0 6 3 1 5 -13 5 -14 0 -19 -2 -12 -5z"/>
<path d="M9585 11110 c3 -5 8 -10 11 -10 2 0 4 5 4 10 0 6 -5 10 -11 10 -5 0
-7 -4 -4 -10z"/>
<path d="M9948 11113 c7 -3 16 -2 19 1 4 3 -2 6 -13 5 -11 0 -14 -3 -6 -6z"/>
<path d="M9200 11100 c0 -5 5 -10 11 -10 5 0 7 5 4 10 -3 6 -8 10 -11 10 -2 0
-4 -4 -4 -10z"/>
<path d="M9490 11082 c0 -18 7 -40 15 -48 13 -13 14 -11 8 18 -9 52 -22 69
-23 30z"/>
<path d="M9880 11078 c0 -27 5 -37 20 -41 23 -6 27 -37 5 -37 -8 0 -15 -5 -15
-11 0 -6 8 -9 18 -7 19 4 31 58 12 58 -6 0 -9 8 -6 18 4 12 -1 26 -14 37 -20
18 -20 18 -20 -17z"/>
<path d="M9620 11080 c0 -15 5 -20 18 -18 9 2 17 10 17 18 0 8 -8 16 -17 18
-13 2 -18 -3 -18 -18z"/>
<path d="M9980 11091 c0 -8 52 -23 59 -16 1 2 0 8 -4 14 -8 13 -55 15 -55 2z"/>
<path d="M9130 11075 c0 -8 7 -15 15 -15 8 0 15 7 15 15 0 8 -7 15 -15 15 -8
0 -15 -7 -15 -15z"/>
<path d="M9730 11071 c0 -10 42 -23 49 -15 7 6 -20 24 -36 24 -7 0 -13 -4 -13
-9z"/>
<path d="M9265 11060 c3 -5 8 -10 11 -10 2 0 4 5 4 10 0 6 -5 10 -11 10 -5 0
-7 -4 -4 -10z"/>
<path d="M9836 11057 c3 -10 9 -15 12 -12 3 3 0 11 -7 18 -10 9 -11 8 -5 -6z"/>
<path d="M9950 11060 c0 -5 4 -10 9 -10 6 0 13 5 16 10 3 6 -1 10 -9 10 -9 0
-16 -4 -16 -10z"/>
<path d="M10285 11060 c-3 -5 -1 -10 4 -10 6 0 11 5 11 10 0 6 -2 10 -4 10 -3
0 -8 -4 -11 -10z"/>
<path d="M9690 11050 c-12 -8 -10 -10 8 -10 13 0 20 4 17 10 -7 12 -6 12 -25
0z"/>
<path d="M9553 11043 c-15 -5 -18 -33 -4 -33 5 0 11 9 14 20 3 11 4 20 4 19
-1 0 -8 -3 -14 -6z"/>
<path d="M9378 11033 c7 -3 16 -2 19 1 4 3 -2 6 -13 5 -11 0 -14 -3 -6 -6z"/>
<path d="M9455 11030 c3 -5 10 -10 16 -10 5 0 9 5 9 10 0 6 -7 10 -16 10 -8 0
-12 -4 -9 -10z"/>
<path d="M9950 11018 c0 -19 2 -20 10 -8 13 19 13 30 0 30 -5 0 -10 -10 -10
-22z"/>
<path d="M9860 11020 c0 -5 5 -10 11 -10 5 0 7 5 4 10 -3 6 -8 10 -11 10 -2 0
-4 -4 -4 -10z"/>
<path d="M9400 11010 c0 -5 7 -10 15 -10 8 0 15 5 15 10 0 6 -7 10 -15 10 -8
0 -15 -4 -15 -10z"/>
<path d="M10161 11004 c0 -11 3 -14 6 -6 3 7 2 16 -1 19 -3 4 -6 -2 -5 -13z"/>
<path d="M9678 10981 c-2 -17 -1 -31 4 -31 14 0 20 28 10 46 -8 14 -10 11 -14
-15z"/>
<path d="M9427 10983 c-15 -16 -19 -16 -27 -3 -5 8 -12 11 -16 7 -11 -11 28
-36 46 -29 16 6 30 22 30 35 0 12 -15 8 -33 -10z"/>
<path d="M9482 10984 c4 -21 22 -23 26 -1 2 10 -3 17 -13 17 -10 0 -15 -6 -13
-16z"/>
<path d="M9560 10975 c0 -8 5 -15 10 -15 6 0 10 7 10 15 0 8 -4 15 -10 15 -5
0 -10 -7 -10 -15z"/>
<path d="M9270 10950 c0 -5 7 -10 15 -10 8 0 15 5 15 10 0 6 -7 10 -15 10 -8
0 -15 -4 -15 -10z"/>
<path d="M9871 10953 c0 -5 4 -17 9 -28 8 -18 9 -17 9 8 1 15 -3 27 -9 27 -5
0 -10 -3 -9 -7z"/>
<path d="M10130 10950 c0 -5 5 -10 11 -10 5 0 7 5 4 10 -3 6 -8 10 -11 10 -2
0 -4 -4 -4 -10z"/>
<path d="M9340 10920 c0 -11 3 -20 8 -20 4 0 13 9 20 20 11 18 10 20 -8 20
-13 0 -20 -7 -20 -20z"/>
<path d="M9467 10933 c-4 -3 -7 -12 -7 -20 0 -17 26 -17 33 1 8 21 -11 35 -26
19z"/>
<path d="M9640 10927 c0 -19 33 -47 54 -47 15 0 17 -7 14 -45 -2 -35 0 -45 12
-45 12 0 15 14 16 60 0 56 -7 73 -20 51 -10 -15 -44 -1 -49 20 -6 22 -27 26
-27 6z"/>
<path d="M9794 10914 c4 -16 7 -37 7 -46 0 -24 16 -23 28 1 8 14 7 20 -4 25
-8 3 -15 12 -15 20 0 8 -5 18 -11 22 -9 5 -10 -1 -5 -22z"/>
<path d="M9925 10920 c-3 -11 -11 -20 -16 -20 -12 0 -12 -37 1 -45 6 -3 10
-16 10 -28 0 -24 35 -53 45 -37 3 5 -3 15 -15 22 -22 14 -27 38 -7 38 7 0 18
-5 25 -12 9 -9 12 -9 12 -1 0 7 -4 14 -9 17 -5 3 -7 24 -4 46 5 35 3 40 -15
40 -12 0 -23 -9 -27 -20z"/>
<path d="M9990 10930 c0 -13 11 -13 30 0 12 8 11 10 -7 10 -13 0 -23 -4 -23
-10z"/>
<path d="M9599 10914 c0 -10 -4 -42 -8 -71 -5 -39 -4 -54 6 -57 7 -3 15 -1 18
4 4 6 1 10 -4 10 -6 0 -11 8 -11 18 1 14 4 13 20 -7 11 -13 20 -29 20 -37 0
-8 5 -14 11 -14 6 0 9 11 7 24 -1 13 3 30 10 39 11 13 10 17 -7 27 -15 8 -27
8 -41 0 -17 -9 -20 -8 -20 10 0 11 7 20 15 20 19 0 19 9 0 34 -15 20 -15 20
-16 0z"/>
<path d="M10180 10920 c0 -5 5 -10 10 -10 6 0 10 5 10 10 0 6 -4 10 -10 10 -5
0 -10 -4 -10 -10z"/>
<path d="M9430 10895 c0 -8 4 -15 10 -15 5 0 7 7 4 15 -4 8 -8 15 -10 15 -2 0
-4 -7 -4 -15z"/>
<path d="M9280 10891 c0 -5 7 -12 16 -15 24 -9 27 -7 10 9 -17 17 -26 19 -26
6z"/>
<path d="M9520 10890 c0 -5 -7 -10 -15 -10 -19 0 -20 -16 -1 -27 8 -4 16 -19
19 -33 3 -16 5 -10 6 18 0 23 6 42 12 42 5 0 7 5 4 10 -3 6 -10 10 -16 10 -5
0 -9 -4 -9 -10z"/>
<path d="M9865 10890 c-3 -5 -1 -10 4 -10 6 0 11 5 11 10 0 6 -2 10 -4 10 -3
0 -8 -4 -11 -10z"/>
<path d="M9372 10874 c9 -9 21 -13 28 -9 14 9 -5 25 -30 25 -12 0 -12 -3 2
-16z"/>
<path d="M9760 10875 c0 -8 7 -15 16 -15 14 0 14 3 4 15 -7 8 -14 15 -16 15
-2 0 -4 -7 -4 -15z"/>
<path d="M10038 10883 c6 -2 18 -2 25 0 6 3 1 5 -13 5 -14 0 -19 -2 -12 -5z"/>
<path d="M10195 10870 c3 -5 8 -10 11 -10 2 0 4 5 4 10 0 6 -5 10 -11 10 -5 0
-7 -4 -4 -10z"/>
<path d="M10150 10840 c-8 -5 -11 -12 -8 -16 4 -3 14 1 23 10 18 17 9 21 -15
6z"/>
<path d="M9413 10833 c-17 -6 -16 -30 1 -36 18 -7 56 3 56 14 0 7 -34 30 -42
28 -2 0 -9 -3 -15 -6z"/>
<path d="M9828 10833 c-31 -8 -19 -24 14 -21 29 3 34 -1 51 -37 19 -39 25 -57
26 -82 1 -7 5 -13 11 -13 13 0 2 86 -16 128 -15 32 -36 38 -86 25z"/>
<path d="M9840 10789 c0 -5 5 -7 10 -4 6 3 10 8 10 11 0 2 -4 4 -10 4 -5 0
-10 -5 -10 -11z"/>
<path d="M9997 10779 c3 -10 9 -16 14 -13 13 8 11 21 -5 27 -10 4 -12 0 -9
-14z"/>
<path d="M10138 10793 c7 -3 16 -2 19 1 4 3 -2 6 -13 5 -11 0 -14 -3 -6 -6z"/>
<path d="M10060 10780 c0 -5 5 -10 10 -10 6 0 10 5 10 10 0 6 -4 10 -10 10 -5
0 -10 -4 -10 -10z"/>
<path d="M9674 10750 c-4 -16 -10 -30 -15 -30 -5 0 -9 -11 -9 -25 0 -14 5 -25
10 -25 6 0 10 11 10 25 0 24 24 36 32 16 4 -11 58 -2 58 10 0 5 -12 6 -27 3
-41 -7 -62 10 -45 36 7 12 8 20 2 20 -6 0 -13 -13 -16 -30z"/>
<path d="M9745 10770 c3 -5 8 -10 11 -10 2 0 4 5 4 10 0 6 -5 10 -11 10 -5 0
-7 -4 -4 -10z"/>
<path d="M10262 10771 c4 -13 18 -16 19 -4 0 4 -5 9 -11 12 -7 2 -11 -2 -8 -8z"/>
<path d="M9535 10760 c-3 -5 1 -10 9 -10 9 0 16 5 16 10 0 6 -4 10 -9 10 -6 0
-13 -4 -16 -10z"/>
<path d="M9440 10746 c0 -8 -5 -16 -12 -18 -9 -3 -9 -6 0 -12 7 -4 12 -2 12 3
0 6 18 11 40 11 29 0 40 4 40 15 0 11 -11 15 -40 15 -28 0 -40 -4 -40 -14z"/>
<path d="M9705 10750 c-3 -5 3 -10 15 -10 12 0 18 5 15 10 -3 6 -10 10 -15 10
-5 0 -12 -4 -15 -10z"/>
<path d="M9952 10740 c-7 -12 -8 -20 -2 -20 5 0 10 -5 10 -12 0 -12 59 -68 72
-68 17 0 7 17 -31 49 -27 23 -37 39 -34 52 7 25 1 24 -15 -1z"/>
<path d="M10130 10750 c-12 -8 -11 -10 8 -10 12 0 22 5 22 10 0 13 -11 13 -30
0z"/>
<path d="M10185 10750 c-3 -5 -1 -10 4 -10 6 0 11 5 11 10 0 6 -2 10 -4 10 -3
0 -8 -4 -11 -10z"/>
<path d="M10025 10740 c3 -5 13 -10 21 -10 8 0 14 5 14 10 0 6 -9 10 -21 10
-11 0 -17 -4 -14 -10z"/>
<path d="M9537 10724 c7 -3 9 -12 6 -20 -6 -16 23 -19 47 -4 11 7 9 11 -13 19
-28 11 -65 15 -40 5z"/>
<path d="M9505 10710 c3 -5 8 -10 11 -10 2 0 4 5 4 10 0 6 -5 10 -11 10 -5 0
-7 -4 -4 -10z"/>
<path d="M10065 10713 c11 -3 30 -15 43 -26 l23 -21 -9 24 c-7 19 -17 25 -43
27 -19 1 -25 -1 -14 -4z"/>
<path d="M10256 10678 c3 -59 3 -60 12 -54 9 5 3 96 -7 96 -4 0 -6 -19 -5 -42z"/>
<path d="M9695 10670 c-3 -5 1 -10 9 -10 9 0 16 5 16 10 0 6 -4 10 -9 10 -6 0
-13 -4 -16 -10z"/>
<path d="M10069 10658 c5 -13 17 -25 27 -27 11 -2 34 -16 52 -32 26 -23 40
-28 68 -25 39 5 51 12 40 23 -4 4 -11 1 -16 -7 -9 -14 -11 -12 -14 19 -2 23
-26 25 -26 2 0 -14 -6 -21 -20 -21 -22 0 -26 10 -9 27 8 8 8 13 0 17 -6 4 -11
2 -11 -3 0 -6 -7 -11 -15 -11 -8 0 -15 5 -15 10 0 6 -11 10 -25 10 -18 0 -25
5 -25 20 0 11 -4 20 -10 20 -6 0 -6 -9 -1 -22z"/>
<path d="M9925 10640 c-5 -16 -15 -20 -46 -20 -21 0 -39 -4 -39 -10 0 -5 18
-10 40 -10 29 0 40 -4 40 -15 0 -11 -12 -15 -42 -16 -35 -1 -38 -2 -18 -8 21
-6 22 -8 8 -14 -22 -8 -24 -27 -3 -27 18 0 20 -27 3 -33 -7 -2 -1 -2 15 0 31
5 50 -23 26 -38 -15 -10 -17 -9 49 -15 28 -2 32 1 32 22 0 13 -4 24 -10 24 -5
0 -10 -7 -10 -15 0 -21 -11 -18 -37 9 -30 31 -29 46 3 46 14 0 23 4 19 10 -3
6 -15 10 -26 10 -10 0 -19 -4 -19 -10 0 -5 -7 -10 -15 -10 -24 0 -18 19 10 32
20 9 25 18 25 50 0 32 3 38 21 38 11 0 17 5 14 10 -10 17 -33 11 -40 -10z"/>
<path d="M9667 10620 c-3 -11 -1 -20 4 -20 5 0 9 9 9 20 0 11 -2 20 -4 20 -2
0 -6 -9 -9 -20z"/>
<path d="M9692 10628 c5 -15 28 -18 29 -3 0 6 -7 12 -17 13 -10 3 -15 -1 -12
-10z"/>
<path d="M10020 10615 c0 -8 5 -15 10 -15 6 0 10 7 10 15 0 8 -4 15 -10 15 -5
0 -10 -7 -10 -15z"/>
<path d="M9760 10604 c0 -13 -6 -15 -28 -11 -32 6 -68 -8 -42 -17 31 -10 85
-1 88 16 2 9 -2 19 -7 23 -6 3 -11 -1 -11 -11z"/>
<path d="M10082 10583 c2 -10 14 -20 28 -22 25 -3 25 -3 6 18 -23 26 -39 27
-34 4z"/>
<path d="M10005 10560 c-13 -6 -15 -9 -5 -9 8 0 22 4 30 9 18 12 2 12 -25 0z"/>
<path d="M10045 10540 c-10 -11 -14 -20 -9 -20 12 1 44 25 44 34 0 12 -17 6
-35 -14z"/>
<path d="M10178 10535 c2 -14 8 -28 13 -31 12 -7 11 -24 -1 -24 -5 0 -10 7
-10 15 0 9 -9 15 -21 15 -31 0 -18 -23 20 -34 49 -14 60 4 30 49 -28 41 -38
44 -31 10z"/>
<path d="M10091 10536 c-9 -11 -8 -15 5 -20 20 -8 39 7 30 23 -10 15 -21 14
-35 -3z"/>
<path d="M9990 10510 c-10 -6 -11 -10 -2 -10 6 0 12 -10 12 -22 0 -29 13 -14
15 17 1 27 -3 29 -25 15z"/>
<path d="M10055 10500 c4 -6 11 -8 16 -5 14 9 11 15 -7 15 -8 0 -12 -5 -9 -10z"/>
<path d="M10080 10475 c0 -8 -7 -15 -15 -15 -8 0 -15 5 -15 10 0 6 -4 10 -9
10 -14 0 -1 -72 17 -92 14 -17 16 -16 29 9 11 21 11 28 1 35 -10 6 -10 10 1
17 7 5 11 13 7 19 -3 6 0 13 6 15 8 3 6 6 -4 6 -10 1 -18 -6 -18 -14z m-2 -58
c2 -10 -3 -17 -12 -17 -10 0 -16 9 -16 21 0 24 23 21 28 -4z"/>
<path d="M10123 10440 c0 -23 4 -30 16 -28 9 2 15 12 13 23 -4 18 -2 18 22 2
21 -14 29 -15 46 -5 11 7 20 16 20 20 0 5 -9 3 -20 -4 -16 -10 -25 -9 -49 5
-40 24 -48 22 -48 -13z"/>
<path d="M9993 10413 c-7 -2 -13 -14 -13 -25 0 -27 25 -17 26 10 1 12 1 22 0
21 0 0 -7 -3 -13 -6z"/>
<path d="M10106 10393 c-11 -11 6 -23 30 -23 14 0 23 4 20 9 -7 11 -43 21 -50
14z"/>
<path d="M10185 10381 c-7 -12 12 -24 25 -16 11 7 4 25 -10 25 -5 0 -11 -4
-15 -9z"/>
<path d="M10153 10345 c-15 -17 -17 -55 -3 -55 6 0 10 7 10 15 0 8 4 15 10 15
5 0 7 -7 4 -15 -7 -17 11 -21 21 -5 3 6 15 10 26 10 14 0 19 7 19 25 0 14 -4
25 -10 25 -5 0 -10 -7 -10 -15 0 -8 -9 -15 -20 -15 -11 0 -20 7 -20 15 0 19
-11 19 -27 0z"/>
<path d="M9431 8924 c0 -11 3 -14 6 -6 3 7 2 16 -1 19 -3 4 -6 -2 -5 -13z"/>
</g>
</svg>
